SplineFontDB: 3.0
FontName: BetecknaLowerCaseBold
FullName: BetecknaLowerCase
FamilyName: BetecknaLowerCase
Weight: Medium
Copyright: Drawn by Johan Mattsson
Version: 
ItalicAngle: 0
UnderlinePosition: -200
UnderlineWidth: 50
Ascent: 800
Descent: 200
LayerCount: 2
Layer: 0 1 "Back" 
Layer: 1 1 "Fore" 
NeedsXUIDChange: 1
XUID: [1021 880 1988980000 3066022]
FSType: 0
OS2Version: 3
OS2_WeightWidthSlopeOnly: 0
OS2_UseTypoMetrics: 1
CreationTime: 1176121501
ModificationTime: 1239205378
PfmFamily: 17
TTFWeight: 500
TTFWidth: 5
LineGap: 90
VLineGap: 0
Panose: 2 0 6 3 0 0 0 0 0 0
OS2TypoAscent: 0
OS2TypoAOffset: 1
OS2TypoDescent: 0
OS2TypoDOffset: 1
OS2TypoLinegap: 0
OS2WinAscent: 0
OS2WinAOffset: 1
OS2WinDescent: 0
OS2WinDOffset: 1
HheadAscent: 0
HheadAOffset: 1
HheadDescent: 0
HheadDOffset: 1
OS2SubXSize: 650
OS2SubYSize: 699
OS2SubXOff: 0
OS2SubYOff: 479
OS2SupXSize: 650
OS2SupYSize: 699
OS2SupXOff: 0
OS2SupYOff: 0
OS2StrikeYSize: 49
OS2StrikeYPos: 258
OS2Vendor: 'PfEd'
OS2CodePages: 00000010.01140000
OS2UnicodeRanges: 800000cf.40000000.00000000.00000000
Lookup: 4 0 1 "'liga' Standard Ligatures in Latin lookup 0"  {"'liga' Standard Ligatures in Latin lookup 0 subtable"  } ['liga' ('latn' <'dflt' > ) ]
Lookup: 258 0 0 "'kern' Horizontal Kerning in Latin lookup 0"  {"'kern' Horizontal Kerning in Latin lookup 0 subtable"  } ['kern' ('latn' <'dflt' > ) ]
DEI: 0
ShortTable: maxp 16
  1
  0
  182
  92
  5
  70
  4
  2
  0
  1
  1
  0
  64
  0
  2
  1
EndShort
LangName: 1033 "" "" "" "FontForge 2.0 : BetecknaLowerCase : 4-10-2008" 
GaspTable: 1 65535 2
Encoding: UnicodeBmp
UnicodeInterp: none
NameList: Adobe Glyph List
DisplaySize: -72
AntiAlias: 1
FitToEm: 1
Grid
-1000 142 m 0
 2000 142 l 0
EndSplineSet
BeginChars: 65539 190

StartChar: .notdef
Encoding: 65536 -1 0
Width: 500
Flags: HW
LayerCount: 2
Fore
SplineSet
30 -20 m 1
 30 553 l 1
 470 553 l 1
 470 -20 l 1
 30 -20 l 1
120 70 m 1,0,0
 380 70 l 1,0,0
 380 463 l 1,0,0
 120 463 l 1,0,0
 120 70 l 1,0,0
EndSplineSet
EndChar

StartChar: exclam
Encoding: 33 33 4
Width: 238
GlyphClass: 2
Flags: HW
LayerCount: 2
Fore
SplineSet
54.2705 713 m 1
 184.229 713 l 1
 178.774 232 l 1
 47.7256 232 l 1
 54.2705 713 l 1
58.1904 117.001 m 128,-1,6
 82.3809 137.832 82.3809 137.832 97.4312 138.174 c 128,-1,7
 112.481 138.517 112.481 138.517 113.415 138.517 c 0,0,0
 141.821 138.517 141.821 138.517 165.911 118.442 c 128,-1,8
 190 98.3672 190 98.3672 190 62 c 0,9,10
 190 24.2021 190 24.2021 165.89 2.10107 c 128,-1,11
 141.779 -20 141.779 -20 112.088 -20 c 128,-1,12
 82.3965 -20 82.3965 -20 58.1982 1.50928 c 128,-1,13
 34 23.0186 34 23.0186 34 60 c 0,4,5
 34 96.1709 34 96.1709 58.1904 117.001 c 128,-1,6
EndSplineSet
EndChar

StartChar: quotedbl
Encoding: 34 34 5
Width: 340
GlyphClass: 2
Flags: HW
LayerCount: 2
Fore
SplineSet
202.918 620.816 m 128,-1,2
 179.958 676.72 179.958 676.72 179.958 697.598 c 0,0,0
 179.958 697.865 179.958 697.865 179.988 698.613 c 0
 180.02 699.361 180.02 699.361 180.02 699.624 c 0,3,4
 180.069 734.258 180.069 734.258 203.735 754.543 c 128,-1,5
 227.401 774.829 227.401 774.829 242.169 775.172 c 128,-1,6
 256.938 775.516 256.938 775.516 257.84 775.516 c 0,0,0
 285.987 775.516 285.987 775.516 309.994 754.843 c 128,-1,7
 334 734.171 334 734.171 334 696 c 2,8,9
 334 694.345 l 1
 333.728 692.712 l 2,8,9
 329.385 666.654 329.385 666.654 319.747 642.023 c 128,-1,10
 310.108 617.393 310.108 617.393 303.022 604.856 c 128,-1,11
 295.937 592.319 295.937 592.319 281.862 572.213 c 128,-1,12
 267.788 552.107 267.788 552.107 265.149 547.71 c 2,0,1
 239.654 505.219 l 1
 228.512 553.503 l 2,0,1
 225.879 564.912 225.879 564.912 202.918 620.816 c 128,-1,2
28.9185 620.816 m 128,-1,15
 5.95801 676.72 5.95801 676.72 5.95801 697.598 c 0,0,0
 5.95801 697.864 5.95801 697.864 5.98828 698.613 c 0
 6.01953 699.361 6.01953 699.361 6.01953 699.624 c 0,16,17
 6.06934 734.258 6.06934 734.258 29.7354 754.543 c 128,-1,18
 53.4014 774.829 53.4014 774.829 68.1694 775.172 c 128,-1,19
 82.9375 775.516 82.9375 775.516 83.8398 775.516 c 0,0,0
 111.987 775.516 111.987 775.516 135.994 754.843 c 128,-1,20
 160 734.171 160 734.171 160 696 c 2,21,22
 160 694.345 l 1
 159.728 692.712 l 2,21,22
 155.385 666.654 155.385 666.654 145.747 642.023 c 128,-1,23
 136.108 617.393 136.108 617.393 129.023 604.856 c 128,-1,24
 121.938 592.32 121.938 592.32 107.863 572.214 c 128,-1,25
 93.7881 552.107 93.7881 552.107 91.1494 547.71 c 2,13,14
 65.6543 505.219 l 1
 54.5117 553.503 l 2,13,14
 51.8789 564.912 51.8789 564.912 28.9185 620.816 c 128,-1,15
EndSplineSet
EndChar

StartChar: numbersign
Encoding: 35 35 6
Width: 455
GlyphClass: 2
Flags: HW
LayerCount: 2
Fore
SplineSet
85 640 m 1
 202 640 l 1
 202 500 l 1,0,0
 252 500 l 1,0,0
 252 640 l 1
 370 640 l 1
 370 500 l 1,0,0
 428 500 l 1
 428 369 l 1
 370 369 l 1,0,0
 370 326 l 1,0,0
 428 326 l 1
 428 199 l 1
 370 199 l 1,0,0
 370 50 l 1
 252 50 l 1
 252 199 l 1,0,0
 202 199 l 1,0,0
 202 50 l 1
 85 50 l 1
 85 199.342 l 1,0,0
 27 200.342 l 1
 27 326 l 1
 85 326 l 1,0,0
 85 370 l 1,0,0
 27 370 l 1
 27 501.348 l 1
 85 500.348 l 1,0,0
 85 640 l 1
202 369.776 m 1,0,0
 202 326 l 1,0,0
 252 326 l 1,0,0
 252 369.221 l 1,0,0
 202 369.776 l 1,0,0
EndSplineSet
EndChar

StartChar: dollar
Encoding: 36 36 7
Width: 733
GlyphClass: 2
Flags: HW
LayerCount: 2
Fore
SplineSet
321.623 9.50977 m 1
 290.37 13.7676 290.37 13.7676 257.018 29.3877 c 0
 215.538 48.8154 215.538 48.8154 194.306 65.1475 c 0
 174.272 80.5576 174.272 80.5576 156.768 96.0029 c 2
 144.476 106.849 l 1
 205.462 212.05 l 1
 223.838 194.439 l 2
 247.001 172.242 247.001 172.242 262.577 160.441 c 0
 277.075 149.458 277.075 149.458 303.261 138.433 c 0
 328.039 128 328.039 128 356 128 c 0
 396.841 128 396.841 128 411.326 136.005 c 0
 428.737 145.627 428.737 145.627 451.953 183.46 c 0
 464.678 204.195 464.678 204.195 464.678 223.928 c 0
 464.678 237.98 464.678 237.98 458.25 252.319 c 0
 443.538 285.137 443.538 285.137 401.381 302.508 c 0
 334.803 329.941 334.803 329.941 331.454 331.102 c 0
 268.641 352.86 268.641 352.86 235.345 381.936 c 0
 196.082 416.222 196.082 416.222 180.806 456.391 c 0
 168.454 488.871 168.454 488.871 168.454 523.265 c 0
 168.454 530.879 168.454 530.879 169.062 538.574 c 0
 172.439 581.359 172.439 581.359 193.948 616.451 c 0
 215.509 651.629 215.509 651.629 254.71 675.149 c 0
 284.75 693.174 284.75 693.174 321.321 699.35 c 1
 307.814 770 l 1
 430.839 770 l 1
 418.433 699.698 l 1
 477.679 691.043 477.679 691.043 521.574 655.553 c 2
 535.707 644.127 l 1
 471.975 547.752 l 1
 454.734 563.033 l 2
 422.563 591.548 422.563 591.548 376.009 591.548 c 0
 365.626 591.548 365.626 591.548 354.48 590.154 c 0
 329.417 587.021 329.417 587.021 312.804 570.021 c 0
 295.993 552.819 295.993 552.819 293.34 531.975 c 0
 293.02 529.458 293.02 529.458 293.02 526.904 c 0
 293.02 509.43 293.02 509.43 308.128 488.827 c 0
 328.281 461.346 328.281 461.346 367.479 447.921 c 2
 440.479 422.921 l 2
 471.617 412.258 471.617 412.258 505.893 385.197 c 0
 536.91 360.71 536.91 360.71 561.179 324.037 c 0
 586.646 285.555 586.646 285.555 589.465 238.188 c 0
 589.807 232.436 589.807 232.436 589.807 226.647 c 0
 589.807 181.804 589.807 181.804 569.323 134.983 c 0
 526.953 38.1396 526.953 38.1396 426.282 14.9014 c 1
 434.794 -50 l 1
 314.441 -50 l 1
 321.623 9.50977 l 1
EndSplineSet
EndChar

StartChar: percent
Encoding: 37 37 8
Width: 560
GlyphClass: 2
Flags: HW
LayerCount: 2
Fore
SplineSet
127 473 m 0
 126.877 469.413 126.877 469.413 127.703 465.416 c 0
 129.485 456.805 129.485 456.805 137.606 452.042 c 0
 143.219 448.75 143.219 448.75 148.875 448.75 c 0
 149.9 448.771 149.9 448.771 150.486 448.824 c 0
 151.527 448.941 151.527 448.941 152.13 449.054 c 0
 153.207 449.274 153.207 449.274 153.848 449.453 c 0
 156.198 450.108 156.198 450.108 159.715 451.943 c 0
 166.537 455.503 166.537 455.503 168.776 463.638 c 0
 169.73 467.105 169.73 467.105 170 474 c 0
 170.079 476.021 170.079 476.021 169.684 478.776 c 0
 168.749 485.282 168.749 485.282 164.434 488.941 c 0
 157.288 495 157.288 495 148.5 495 c 0
 144.205 495 144.205 495 140.299 493.231 c 0
 137.693 492.052 137.693 492.052 133.252 488.521 c 0
 128.386 484.652 128.386 484.652 127.303 477.36 c 0
 127.115 476.363 127.115 476.363 127 473 c 0
39.4346 541.208 m 128,-1,11
 58.8691 570.359 58.8691 570.359 86.897 581.228 c 128,-1,12
 114.925 592.096 114.925 592.096 144.107 592.096 c 0,0,0
 147.136 592.096 147.136 592.096 165.051 591.467 c 128,-1,13
 182.966 590.838 182.966 590.838 211.806 576.712 c 128,-1,14
 240.646 562.586 240.646 562.586 259.823 533.821 c 128,-1,15
 279 505.056 279 505.056 279 469 c 0,16,17
 279 431.148 279 431.148 259.865 401.25 c 128,-1,18
 240.73 371.351 240.73 371.351 211.679 357.714 c 128,-1,19
 182.627 344.078 182.627 344.078 165.531 343.778 c 128,-1,20
 148.435 343.479 148.435 343.479 147.029 343.479 c 0,0,0
 115.651 343.479 115.651 343.479 86.9653 356.357 c 128,-1,21
 58.2793 369.236 58.2793 369.236 39.1396 399.741 c 128,-1,22
 20 430.245 20 430.245 20 472 c 0,9,10
 20 512.056 20 512.056 39.4346 541.208 c 128,-1,11
391 161 m 0
 390.862 157.488 390.862 157.488 391.699 153.462 c 0
 393.407 145.248 393.407 145.248 401.28 140.717 c 0
 406.656 137.622 406.656 137.622 412.414 137.622 c 0
 413.49 137.644 413.49 137.644 414.104 137.7 c 0
 418.176 138.077 418.176 138.077 423.715 140.943 c 0
 430.604 144.507 430.604 144.507 432.818 152.312 c 0
 433.773 155.678 433.773 155.678 434 162 c 0
 434.083 164.314 434.083 164.314 433.64 167.349 c 0
 432.364 176.092 432.364 176.092 424.383 180.699 c 0
 419.308 183.628 419.308 183.628 413.357 183.628 c 0
 407.665 183.628 407.665 183.628 401.28 180.283 c 0
 392.653 175.765 392.653 175.765 391.313 165.942 c 1
 391.176 165.49 391.176 165.49 391 161 c 0
303.986 230.283 m 128,-1,33
 323.972 259.354 323.972 259.354 350.942 270.029 c 128,-1,34
 377.913 280.704 377.913 280.704 405.811 280.704 c 0,0,0
 410.14 280.704 410.14 280.704 428.635 279.731 c 128,-1,35
 447.13 278.758 447.13 278.758 475.772 264.729 c 128,-1,36
 504.414 250.7 504.414 250.7 524.207 222.51 c 128,-1,37
 544 194.32 544 194.32 544 157 c 0,38,39
 544 118.894 544 118.894 524.3 89.6426 c 128,-1,40
 504.601 60.3916 504.601 60.3916 475.701 46.2363 c 128,-1,41
 446.801 32.0811 446.801 32.0811 429.619 31.7798 c 128,-1,42
 412.437 31.4785 412.437 31.4785 411.03 31.4785 c 0,0,0
 379.592 31.4785 379.592 31.4785 351.482 44.3618 c 128,-1,43
 323.372 57.2451 323.372 57.2451 303.686 87.6694 c 128,-1,44
 284 118.094 284 118.094 284 160 c 0,31,32
 284 201.212 284 201.212 303.986 230.283 c 128,-1,33
462.003 587.781 m 1
 546.812 499.997 l 1
 85.9971 23.2188 l 1
 1.18848 111.003 l 1
 462.003 587.781 l 1
EndSplineSet
EndChar

StartChar: ampersand
Encoding: 38 38 9
Width: 754
GlyphClass: 2
Flags: HW
LayerCount: 2
Fore
SplineSet
508.63 223.629 m 1,0,0
 528.581 275.686 528.581 275.686 528.581 327.628 c 0,0,0
 528.581 336.182 528.581 336.182 528.04 344.736 c 2,3,-1
 526.694 366 l 1
 651.46 366 l 1
 650.995 345.546 l 2,4,5
 648.093 217.846 648.093 217.846 599.679 127.992 c 1,0,0
 739.384 -20 l 1
 566.506 -20 l 1
 518.694 29.5498 l 1,0,0
 443.459 -30.6748 443.459 -30.6748 328.762 -41.9209 c 0,11,12
 320.366 -42.7441 320.366 -42.7441 307.616 -42.7441 c 0,0,0
 261.923 -42.7441 261.923 -42.7441 210.129 -25.6426 c 128,-1,13
 158.335 -8.54102 158.335 -8.54102 110.227 38.4482 c 128,-1,14
 62.1191 85.4375 62.1191 85.4375 47.5244 145.56 c 0,15,16
 41 172.436 41 172.436 41 208.45 c 128,-1,17
 41 244.464 41 244.464 51.8921 274.962 c 128,-1,18
 62.7842 305.461 62.7842 305.461 76.2358 328.598 c 128,-1,19
 89.6875 351.734 89.6875 351.734 108.711 373.4 c 128,-1,20
 127.735 395.066 127.735 395.066 140.854 406.916 c 128,-1,21
 153.974 418.766 153.974 418.766 164.035 426.9 c 1,0,0
 147.811 463.652 147.811 463.652 146.105 485.537 c 128,-1,24
 144.4 507.422 144.4 507.422 144.4 515.52 c 0,0,0
 144.4 548.774 144.4 548.774 156.466 577.935 c 128,-1,25
 168.532 607.095 168.532 607.095 185.684 629.392 c 128,-1,26
 202.836 651.689 202.836 651.689 220.535 665.637 c 0,27,28
 259.372 696.243 259.372 696.243 297.879 700.059 c 128,-1,29
 336.386 703.875 336.386 703.875 350.781 703.875 c 0,0,0
 394.342 703.875 394.342 703.875 441.859 687.541 c 128,-1,30
 489.376 671.207 489.376 671.207 508.003 632.711 c 2,31,-1
 514.382 619.528 l 1
 431.759 541.412 l 1
 418.52 560.67 l 2,32,33
 402.031 584.652 402.031 584.652 376.79 586.244 c 128,-1,34
 351.549 587.836 351.549 587.836 347.081 587.836 c 0,0,0
 306.485 587.836 306.485 587.836 285.962 564.741 c 0,35,36
 266.838 543.221 266.838 543.221 266.838 516.717 c 0,0,0
 266.838 475.529 266.838 475.529 317.378 423.901 c 2,0,-1
 508.63 223.629 l 1,0,0
234.821 327.321 m 1,0,0
 201.137 295.781 201.137 295.781 184.946 264.048 c 128,-1,39
 168.756 232.314 168.756 232.314 168.756 207.615 c 0,0,0
 168.756 191.978 168.756 191.978 173.974 176.324 c 0,40,41
 185.065 143.05 185.065 143.05 217.711 117.559 c 128,-1,42
 250.356 92.0684 250.356 92.0684 279.742 83.2129 c 128,-1,43
 309.127 74.3574 309.127 74.3574 328.375 74.3574 c 0,0,0
 332.501 74.3574 332.501 74.3574 337.886 74.8867 c 0,44,45
 393.491 80.3594 393.491 80.3594 436.533 116.802 c 1,0,0
 234.821 327.321 l 1,0,0
EndSplineSet
EndChar

StartChar: quotesingle
Encoding: 39 39 10
Width: 154
GlyphClass: 2
Flags: HW
LayerCount: 2
Fore
SplineSet
0 699 m 0,2,3
 0 734.003 0 734.003 23.5063 754.823 c 128,-1,4
 47.0127 775.643 47.0127 775.643 61.9243 776.353 c 128,-1,5
 76.8359 777.062 76.8359 777.062 78.6113 777.062 c 0,0,0
 105.492 777.062 105.492 777.062 128.746 757.13 c 128,-1,6
 152 737.198 152 737.198 152 699 c 0,7,8
 152 660.491 152 660.491 131.615 617.576 c 128,-1,9
 111.23 574.66 111.23 574.66 90.0713 546.096 c 2,0,1
 73.1387 523.236 l 1
 57.3594 546.906 l 2,0,1
 -0 632.944 -0 632.944 0 699 c 0,2,3
EndSplineSet
EndChar

StartChar: parenleft
Encoding: 40 40 11
Width: 268
GlyphClass: 2
Flags: HW
LayerCount: 2
Fore
SplineSet
19 324.095 m 128,-1,2
 19 489.785 19 489.785 20.1025 503.945 c 0,3,4
 28.3037 609.328 28.3037 609.328 82.1802 682.748 c 128,-1,5
 136.057 756.168 136.057 756.168 220.983 793.323 c 2,6,-1
 249 805.58 l 1
 249 661.679 l 1
 240.588 655.699 l 2,7,8
 164.897 601.895 164.897 601.895 153.861 502.655 c 0,9,10
 153 494.906 153 494.906 153 326.049 c 128,-1,11
 153 157.191 153 157.191 153.879 150.168 c 0,12,13
 166.548 48.9287 166.548 48.9287 240.251 -8.19141 c 2,14,-1
 248 -14.1973 l 1
 248 -167.991 l 1
 219.24 -153.979 l 2,15,16
 136.594 -113.716 136.594 -113.716 83.0928 -37.437 c 128,-1,17
 29.5918 38.8418 29.5918 38.8418 20.0801 146.216 c 0,0,1
 19 158.404 19 158.404 19 324.095 c 128,-1,2
EndSplineSet
EndChar

StartChar: parenright
Encoding: 41 41 12
Width: 295
GlyphClass: 2
Flags: HW
LayerCount: 2
Fore
SplineSet
197.885 -34.9692 m 128,-1,2
 144.438 -111.701 144.438 -111.701 61.7598 -151.979 c 2,3,-1
 33 -165.991 l 1
 33 -12.293 l 1
 40.626 -6.28711 l 2,4,5
 114.463 51.8594 114.463 51.8594 127.122 152.18 c 0,6,7
 128 159.133 128 159.133 128 327.69 c 128,-1,8
 128 496.248 128 496.248 127.129 504.746 c 0,9,10
 116.943 604.098 116.943 604.098 41.2832 658.792 c 2,11,-1
 33 664.779 l 1
 33 808.932 l 1
 61.207 796.238 l 2,12,13
 146.021 758.072 146.021 758.072 199.732 684.685 c 128,-1,14
 253.442 611.298 253.442 611.298 261.968 505.806 c 2,15,16
 261.951 149.015 l 2,0,1
 251.332 41.7627 251.332 41.7627 197.885 -34.9692 c 128,-1,2
EndSplineSet
EndChar

StartChar: asterisk
Encoding: 42 42 13
Width: 212
GlyphClass: 2
Flags: HW
LayerCount: 2
Fore
SplineSet
144.615 737.587 m 1
 144.609 737.604 144.609 737.604 144.609 737.607 c 1
 144.602 737.608 144.602 737.608 144.615 737.587 c 1
146 736.662 m 1
 174.625 735.99 l 1
 188.563 735.555 l 1
 200.976 698.317 l 1
 188.881 658 l 1
 182.284 658 l 1
 203.085 637.199 l 1
 183.206 603.405 l 1
 150.296 578.722 l 1
 106.618 621.334 l 1
 64.5488 579.264 l 1
 28.6934 603.168 l 1
 10.1914 638.115 l 1
 31.332 658 l 1
 21.3848 658 l 1
 11.3174 698.269 l 1
 21.9199 736.439 l 1
 65.9482 735.178 l 1
 66 755 l 1
 66 771.396 l 1
 106 779.396 l 1
 146 771.396 l 1
 146 736.662 l 1
64.4902 658 m 1
 65.9805 658 l 1
 64.4902 658 l 1
EndSplineSet
EndChar

StartChar: plus
Encoding: 43 43 14
Width: 495
GlyphClass: 2
Flags: HW
LayerCount: 2
Fore
SplineSet
315 295.146 m 1,0,0
 315 140 l 1
 185.129 140 l 1
 184.13 294.857 l 1,0,0
 44 293.856 l 1
 44 425.281 l 1
 186.579 423.287 l 1,0,0
 183.585 569 l 1
 314 569 l 1
 314 425.146 l 1,0,0
 451 426.146 l 1
 451 296.146 l 1
 315 295.146 l 1,0,0
EndSplineSet
EndChar

StartChar: comma
Encoding: 44 44 15
Width: 154
GlyphClass: 2
Flags: HW
LayerCount: 2
Fore
SplineSet
24.4844 125.186 m 0
 47.4014 144.829 47.4014 144.829 76.0352 145.494 c 0
 76.9395 145.516 76.9395 145.516 77.8398 145.516 c 0
 105.987 145.516 105.987 145.516 129.051 125.655 c 0
 154 104.171 154 104.171 154 66 c 0
 154 41.3936 154 41.3936 142.984 18.751 c 0
 133.213 -1.33594 133.213 -1.33594 124.175 -13.7637 c 0
 114.432 -27.1602 114.432 -27.1602 93.5693 -42.9482 c 0
 73.5957 -58.0625 73.5957 -58.0625 67.9443 -60.8887 c 0
 64.7939 -62.4639 64.7939 -62.4639 49.5996 -71.96 c 0
 35.1387 -80.998 35.1387 -80.998 23.9287 -68.1475 c 0
 12.7188 -55.2969 12.7188 -55.2969 23.6357 -42.1963 c 0
 27.5088 -37.5488 27.5088 -37.5488 32.6348 -28.5771 c 0
 38.1152 -18.9863 38.1152 -18.9863 43.1934 -7.44531 c 0
 46.5391 0.157227 46.5391 0.157227 48.8438 6.88574 c 1
 32.1436 8.71777 32.1436 8.71777 19.3906 21.3438 c 0
 3.66211 36.917 3.66211 36.917 0.6875 56.2793 c 0
 -0.0664062 61.1914 -0.0664062 61.1914 -0.0664062 66.3643 c 0
 -0.0664062 66.8018 -0.0664062 66.8018 -0.0273438 67.9297 c 0
 0.0117188 69.0576 0.0117188 69.0576 0.0126953 69.499 c 0
 0.0791016 104.266 0.0791016 104.266 24.4844 125.186 c 0
EndSplineSet
EndChar

StartChar: hyphen
Encoding: 45 45 16
Width: 470
GlyphClass: 2
Flags: HW
LayerCount: 2
Fore
SplineSet
458 197 m 1
 29 197 l 1
 29 326.948 l 1
 458 328.052 l 1
 458 197 l 1
EndSplineSet
EndChar

StartChar: period
Encoding: 46 46 17
Width: 190
GlyphClass: 2
Flags: HW
LayerCount: 2
Fore
SplineSet
19.1904 117.001 m 128,-1,1
 43.3809 137.832 43.3809 137.832 58.4312 138.174 c 128,-1,2
 73.4814 138.517 73.4814 138.517 74.415 138.517 c 0,3,4
 102.821 138.517 102.821 138.517 126.911 118.442 c 128,-1,5
 151 98.3672 151 98.3672 151 62 c 0,6,7
 151 24.2021 151 24.2021 126.89 2.10107 c 128,-1,8
 102.779 -20 102.779 -20 73.0879 -20 c 128,-1,9
 43.3965 -20 43.3965 -20 19.1982 1.50928 c 128,-1,10
 -5 23.0186 -5 23.0186 -5 60 c 0,11,0
 -5 96.1709 -5 96.1709 19.1904 117.001 c 128,-1,1
EndSplineSet
EndChar

StartChar: slash
Encoding: 47 47 18
Width: 500
GlyphClass: 2
Flags: HW
LayerCount: 2
Fore
SplineSet
183.805 -20 m 1
 33.7246 -20 l 1
 323.23 721.729 l 1
 466.198 724.588 l 1
 183.805 -20 l 1
EndSplineSet
EndChar

StartChar: zero
Encoding: 48 48 19
Width: 569
GlyphClass: 2
Flags: HW
LayerCount: 2
Fore
SplineSet
143 367 m 0,0,1
 143 240.073 143 240.073 183.379 182.478 c 0,2,3
 222.83 126.205 222.83 126.205 255.523 123.618 c 128,-1,4
 288.217 121.031 288.217 121.031 293.175 121.031 c 0,0,0
 345.164 121.031 345.164 121.031 380.063 167.084 c 0,5,6
 425 226.382 425 226.382 425 360 c 0,7,8
 425 494.465 425 494.465 373.204 551.543 c 0,9,10
 345.725 581.825 345.725 581.825 320.283 587.607 c 128,-1,11
 294.841 593.39 294.841 593.39 282.399 593.39 c 0,0,0
 258.18 593.39 258.18 593.39 228.122 579.435 c 128,-1,12
 198.063 565.479 198.063 565.479 174.251 524.881 c 0,13,14
 143 471.601 143 471.601 143 367 c 0,0,1
68.1514 598.776 m 0,17,18
 113.853 670.158 113.853 670.158 174.521 695.774 c 128,-1,19
 235.189 721.39 235.189 721.39 284.855 721.39 c 0,0,0
 310.128 721.39 310.128 721.39 360.534 710.874 c 128,-1,20
 410.939 700.357 410.939 700.357 466.396 642.883 c 0,21,22
 557.872 548.082 557.872 548.082 557.998 358.169 c 0,23,24
 558 355.631 558 355.631 558.063 350.64 c 0
 558.127 345.648 558.127 345.648 558.127 343.111 c 0,0,0
 558.127 169.996 558.127 169.996 489.118 76.1592 c 0,25,26
 438.604 7.4707 438.604 7.4707 384.002 -7.73975 c 128,-1,27
 329.4 -22.9502 329.4 -22.9502 296.333 -22.9502 c 0,0,0
 253.138 -22.9502 253.138 -22.9502 193.776 -1.32568 c 128,-1,28
 134.414 20.2988 134.414 20.2988 82.9893 89.0137 c 0,29,30
 11 185.208 11 185.208 11 361 c 0,15,16
 11 509.509 11 509.509 68.1514 598.776 c 0,17,18
EndSplineSet
EndChar

StartChar: one
Encoding: 49 49 20
Width: 392
GlyphClass: 2
Flags: HW
LayerCount: 2
Fore
SplineSet
151.038 580 m 1
 37.166 580 l 1
 35.833 740 l 1
 287.827 740 l 1
 289 605.105 l 1
 289.962 98 l 1
 291 98 l 1
 291 -20 l 1
 154.255 -20 l 1
 153.255 58 l 1
 152.038 58 l 1
 151.038 580 l 1
EndSplineSet
EndChar

StartChar: two
Encoding: 50 50 21
Width: 540
GlyphClass: 2
Flags: HW
LayerCount: 2
Fore
SplineSet
323.684 407.539 m 2
 363.613 468.97 363.613 468.97 363.613 517.531 c 0
 363.613 526.397 363.613 526.397 362.255 534.815 c 0
 354.406 583.479 354.406 583.479 301.556 595.5 c 0
 292.932 597.462 292.932 597.462 283.657 597.462 c 0
 261.59 597.462 261.59 597.462 235.147 586.52 c 0
 200.004 571.978 200.004 571.978 188.927 539.537 c 2
 180.684 515.396 l 1
 66.2393 588.757 l 1
 74.0137 604.746 l 2
 131.066 722.08 131.066 722.08 276.615 722.08 c 0
 280.147 722.08 280.147 722.08 284.414 721.996 c 0
 393.848 719.824 393.848 719.824 449.612 660.156 c 0
 495.983 610.538 495.983 610.538 495.983 535.616 c 0
 495.983 519.624 495.983 519.624 493.846 502.52 c 0
 482.209 409.427 482.209 409.427 408.094 307.127 c 2
 260.146 110.146 l 1
 514 111.073 l 1
 514 -19.9443 l 1
 116 -21.0557 l 1
 116 -20 l 1
 -4.56738 -20 l 1
 323.684 407.539 l 2
EndSplineSet
EndChar

StartChar: three
Encoding: 51 51 22
Width: 510
GlyphClass: 2
Flags: HW
LayerCount: 2
Fore
SplineSet
328.157 470.905 m 128,-1,2
 341.876 502.002 341.876 502.002 341.876 522.039 c 0,0,0
 341.876 541.407 341.876 541.407 333.072 559.136 c 0,3,4
 317.281 590.933 317.281 590.933 272.972 600.412 c 0,5,6
 261.427 602.883 261.427 602.883 245.597 602.883 c 0,0,0
 224.821 602.883 224.821 602.883 196.435 596.204 c 128,-1,7
 168.049 589.524 168.049 589.524 152.365 562.077 c 2,8,-1
 141.994 543.928 l 1
 30.2402 614.51 l 1
 42.8418 631.786 l 2,9,10
 108.72 722.103 108.72 722.103 253.411 722.103 c 0,0,0
 256.66 722.103 256.66 722.103 263.365 721.996 c 0,11,12
 334.133 720.88 334.133 720.88 386.566 686.661 c 128,-1,13
 438.999 652.441 438.999 652.441 457.087 610.236 c 128,-1,14
 475.175 568.03 475.175 568.03 475.175 530.336 c 0,0,0
 475.175 510.358 475.175 510.358 468.167 473.652 c 128,-1,15
 461.16 436.945 461.16 436.945 424.69 391.426 c 1,0,0
 460.138 350.825 460.138 350.825 480.592 303.587 c 128,-1,18
 501.046 256.349 501.046 256.349 501.046 210.465 c 1,0,0
 501.046 210.954 501.046 210.954 501.027 208.828 c 0
 501.01 206.702 501.01 206.702 500.456 182.595 c 128,-1,19
 499.901 158.488 499.901 158.488 480.194 114.695 c 128,-1,20
 460.487 70.9023 460.487 70.9023 425.54 39.7769 c 128,-1,21
 390.593 8.65137 390.593 8.65137 343.49 -9.54736 c 128,-1,22
 296.387 -27.7461 296.387 -27.7461 243.367 -27.9932 c 0,23,24
 240.954 -28.0049 240.954 -28.0049 236.043 -28.1357 c 0
 231.133 -28.2666 231.133 -28.2666 228.484 -28.2666 c 0,0,0
 122 -28.2666 122 -28.2666 19.5879 26.3525 c 2,25,-1
 -2.35645 38.0566 l 1
 81.709 136.616 l 1
 95.54 130.085 l 2,26,27
 129.902 113.858 129.902 113.858 157.762 106.429 c 128,-1,28
 185.621 99 185.621 99 197.918 99 c 128,-1,29
 210.216 99 210.216 99 225.23 99.4453 c 0
 240.245 99.8896 240.245 99.8896 246.584 99.9912 c 0,30,31
 284.896 100.604 284.896 100.604 311.739 118.362 c 128,-1,32
 338.583 136.12 338.583 136.12 348.829 163.168 c 128,-1,33
 359.074 190.217 359.074 190.217 359.074 219.255 c 0,0,0
 359.074 221.589 359.074 221.589 358.631 237.322 c 128,-1,34
 358.188 253.056 358.188 253.056 339.394 277.978 c 128,-1,35
 320.601 302.899 320.601 302.899 289.644 314 c 1,0,0
 182.755 314 l 1
 178.234 431.517 l 1
 282.088 433.961 l 1,0,0
 314.438 439.809 314.438 439.809 328.157 470.905 c 128,-1,2
EndSplineSet
EndChar

StartChar: four
Encoding: 52 52 23
Width: 477
GlyphClass: 2
Flags: HW
LayerCount: 2
Fore
SplineSet
299 263 m 1,0,0
 299 445.047 l 1,0,0
 177.409 263 l 1,0,0
 299 263 l 1,0,0
434 264 m 1,0,0
 480.236 264 l 1
 478.766 139 l 1
 437 139 l 1,0,0
 437 -20 l 1
 297 -20 l 1
 297 142 l 1,0,0
 -3 142 l 1
 -3 211.205 l 1
 361.472 742 l 1
 434 742 l 1
 434 264 l 1,0,0
EndSplineSet
EndChar

StartChar: five
Encoding: 53 53 24
Width: 509
GlyphClass: 2
Flags: HW
LayerCount: 2
Fore
SplineSet
91.0566 720 m 1
 422.506 720 l 1
 425.506 600 l 1
 223.699 600 l 1,0,0
 221.311 442.369 l 1,0,0
 225.172 442.4 225.172 442.4 228.94 442.4 c 0,0,0
 284.21 442.4 284.21 442.4 323.827 434.763 c 128,-1,6
 363.443 427.126 363.443 427.126 410.174 395.586 c 0,7,8
 449.828 368.822 449.828 368.822 471.677 327.856 c 128,-1,9
 493.525 286.891 493.525 286.891 496.233 258.794 c 128,-1,10
 498.941 230.697 498.941 230.697 498.941 219.943 c 0,0,0
 498.941 185.094 498.941 185.094 486.469 144.797 c 128,-1,11
 473.996 104.501 473.996 104.501 444.309 67.1177 c 128,-1,12
 414.622 29.7344 414.622 29.7344 363.867 7.05664 c 128,-1,13
 313.112 -15.6211 313.112 -15.6211 249.525 -15.9863 c 0,14,15
 247.085 -16 247.085 -16 242.23 -16.1875 c 0
 237.375 -16.375 237.375 -16.375 234.719 -16.375 c 0,0,0
 181.172 -16.375 181.172 -16.375 123.018 4.32373 c 128,-1,16
 64.8643 25.0225 64.8643 25.0225 18.7334 56.4756 c 2,17,-1
 1.17969 68.4443 l 1
 72.9639 161.166 l 1
 88.1406 152.238 l 2,18,19
 137.483 123.213 137.483 123.213 168.094 112.381 c 128,-1,20
 198.705 101.55 198.705 101.55 244.792 101.998 c 0,21,22
 285.327 102.392 285.327 102.392 315.164 125.742 c 128,-1,23
 345.001 149.093 345.001 149.093 353.657 174.368 c 128,-1,24
 362.312 199.643 362.312 199.643 362.312 219.906 c 0,0,0
 362.312 232.133 362.312 232.133 357.953 254.511 c 128,-1,25
 353.594 276.89 353.594 276.89 331.524 294.37 c 0,26,27
 288.581 328.387 288.581 328.387 226.755 332.023 c 2,28,-1
 89.9414 327.303 l 1
 91.0566 720 l 1
EndSplineSet
EndChar

StartChar: six
Encoding: 54 54 25
Width: 590
GlyphClass: 2
Flags: HW
LayerCount: 2
Fore
SplineSet
22.5176 307.655 m 0
 21.0059 343.448 21.0059 343.448 20.502 380.227 c 0
 20.4805 381.823 20.4805 381.823 20.4805 383.439 c 0
 20.4805 421.373 20.4805 421.373 32.5742 470.758 c 0
 45.1221 521.993 45.1221 521.993 70.3457 569.397 c 0
 106.944 638.18 106.944 638.18 173.912 679.968 c 0
 241.212 721.963 241.212 721.963 315.884 721.999 c 0
 316.938 722 316.938 722 319.1 722.019 c 0
 321.262 722.037 321.262 722.037 322.312 722.037 c 0
 409.169 722.037 409.169 722.037 455.349 694.114 c 2
 471.059 684.615 l 1
 413.59 568.126 l 1
 393.857 587.857 l 2
 388.709 593.007 388.709 593.007 366.98 598.64 c 0
 353.7 602.083 353.7 602.083 335.736 602.083 c 0
 323.552 602.083 323.552 602.083 306.291 600.132 c 0
 265.148 595.481 265.148 595.481 235.235 573.805 c 0
 204.607 551.61 204.607 551.61 187.791 518.864 c 0
 169.997 484.212 169.997 484.212 162.053 447.293 c 0
 156.866 423.192 156.866 423.192 155.021 398.099 c 1
 180.493 419.252 180.493 419.252 208.394 432.554 c 0
 254.775 454.666 254.775 454.666 292.012 457.444 c 0
 300.731 458.096 300.731 458.096 309.594 458.096 c 0
 337.767 458.096 337.767 458.096 367.339 451.523 c 0
 405.376 443.071 405.376 443.071 423.776 434.707 c 0
 438.682 427.932 438.682 427.932 457.106 417.258 c 0
 497.37 393.93 497.37 393.93 524.352 340.518 c 0
 551 287.765 551 287.765 551 224 c 0
 551 136.432 551 136.432 504.729 77.6465 c 0
 429.844 -17.4902 429.844 -17.4902 305.087 -18 c 0
 167.357 -18.5625 167.357 -18.5625 91.5566 92.6172 c 0
 72.3398 120.804 72.3398 120.804 51.8467 173.785 c 0
 32.7979 223.032 32.7979 223.032 28.2246 252.76 c 0
 23.5547 283.111 23.5547 283.111 22.5176 307.655 c 0
174 226 m 0,39,40
 174 188.212 174 188.212 192.624 161.124 c 128,-1,41
 211.247 134.035 211.247 134.035 238.164 122.259 c 128,-1,42
 265.08 110.482 265.08 110.482 296.92 110.482 c 1,0,0
 296.635 110.482 296.635 110.482 297.713 110.487 c 0
 298.792 110.492 298.792 110.492 315.57 110.716 c 128,-1,43
 332.349 110.939 332.349 110.939 360.331 124.285 c 128,-1,44
 388.313 137.631 388.313 137.631 406.657 165.786 c 128,-1,45
 425 193.94 425 193.94 425 233 c 0,46,47
 425 274 425 274 398.928 301.375 c 128,-1,48
 372.856 328.75 372.856 328.75 335.62 338.443 c 0,0,0
 327.866 340.462 327.866 340.462 312.828 340.462 c 0,0,0
 307.064 340.462 307.064 340.462 297.026 338.843 c 128,-1,51
 286.987 337.224 286.987 337.224 265.741 330.842 c 0,52,53
 232.751 320.934 232.751 320.934 203.375 286.297 c 128,-1,54
 174 251.661 174 251.661 174 226 c 0,39,40
EndSplineSet
EndChar

StartChar: seven
Encoding: 55 55 26
Width: 481
GlyphClass: 2
Flags: HW
LayerCount: 2
Fore
SplineSet
52 711.055 m 1
 458 709.945 l 1
 458 609.245 l 1
 460.457 601.875 l 1
 177.88 -20 l 1
 10.4082 -20 l 1
 293.408 578 l 1
 52 578 l 1
 52 711.055 l 1
EndSplineSet
EndChar

StartChar: eight
Encoding: 56 56 27
Width: 555
GlyphClass: 2
Flags: HW
LayerCount: 2
Fore
SplineSet
66.2378 601.536 m 128,-1,2
 87.8848 649.957 87.8848 649.957 122.788 676.839 c 0,3,4
 183.968 723.958 183.968 723.958 227.187 724.229 c 130,-1,5
 272.477 724.506 l 2,0,0
 356.619 724.508 356.619 724.508 415.622 682.276 c 0,6,7
 454.003 654.805 454.003 654.805 478.143 605.402 c 128,-1,8
 502.283 555.999 502.283 555.999 500.978 504.335 c 0,9,10
 499.88 460.889 499.88 460.889 448.929 387.606 c 1,0,0
 540 317.752 540 317.752 540 207 c 0,13,14
 540 113.753 540 113.753 496.729 58.6475 c 0,15,16
 459.856 11.6904 459.856 11.6904 401.428 -12.6548 c 128,-1,17
 343 -37 343 -37 279 -37 c 0,18,19
 209.619 -37 209.619 -37 148.628 -8.93359 c 128,-1,20
 87.6377 19.1328 87.6377 19.1328 51.5195 71.6689 c 0,21,22
 15 124.788 15 124.788 15 206 c 0,23,24
 15 311.012 15 311.012 100.896 381.855 c 1,0,0
 47.7246 445.948 47.7246 445.948 46.0127 504.501 c 0,0,1
 44.5908 553.115 44.5908 553.115 66.2378 601.536 c 128,-1,2
156 212 m 0,27,28
 156 174.017 156 174.017 174.251 146.428 c 128,-1,29
 192.502 118.84 192.502 118.84 219.974 106.391 c 128,-1,30
 247.446 93.9424 247.446 93.9424 263.972 93.7222 c 129,-1,31
 280.497 93.502 280.497 93.502 281.536 93.4922 c 0
 282.575 93.4834 282.575 93.4834 282.994 93.4834 c 0,0,0
 314.824 93.4834 314.824 93.4834 342.125 105.664 c 128,-1,32
 369.426 117.844 369.426 117.844 387.213 145.372 c 128,-1,33
 405 172.899 405 172.899 405 212 c 0,34,35
 405 253.674 405 253.674 381.178 281.827 c 128,-1,36
 357.356 309.98 357.356 309.98 321.631 318.505 c 0,37,38
 306.771 322.05 306.771 322.05 281.518 322.05 c 0,0,0
 255.869 322.05 255.869 322.05 236.173 316.684 c 0,39,40
 200.964 307.09 200.964 307.09 178.482 279.942 c 128,-1,41
 156 252.794 156 252.794 156 212 c 0,27,28
299.391 438.702 m 0,0,0
 329.108 444.801 329.108 444.801 348.554 467.143 c 128,-1,44
 368 489.484 368 489.484 368 525 c 0,45,46
 368 551.635 368 551.635 354.484 570.716 c 128,-1,47
 340.968 589.797 340.968 589.797 320.021 598.659 c 128,-1,48
 299.073 607.521 299.073 607.521 275.059 607.521 c 1,0,0
 275.344 607.521 275.344 607.521 274.294 607.516 c 0
 273.244 607.51 273.244 607.51 260.268 607.29 c 128,-1,49
 247.292 607.07 247.292 607.07 226.116 597.936 c 128,-1,50
 204.94 588.801 204.94 588.801 190.97 569.642 c 128,-1,51
 177 550.482 177 550.482 177 524 c 0,52,53
 177 487.604 177 487.604 196.644 465.505 c 128,-1,54
 216.287 443.406 216.287 443.406 246.109 437.788 c 0,0,0
 251.808 436.714 251.808 436.714 268.225 436.714 c 0,0,0
 289.703 436.714 289.703 436.714 299.391 438.702 c 0,0,0
EndSplineSet
EndChar

StartChar: nine
Encoding: 57 57 28
Width: 515
GlyphClass: 2
Flags: HW
LayerCount: 2
Fore
SplineSet
152 501 m 0,0,1
 152 456.883 152 456.883 174.773 432.484 c 128,-1,2
 197.546 408.085 197.546 408.085 215.923 406.098 c 128,-1,3
 234.3 404.111 234.3 404.111 241.469 404.111 c 0,0,0
 266.722 404.111 266.722 404.111 294.974 414.659 c 128,-1,4
 323.227 425.206 323.227 425.206 339.929 447.895 c 0,5,6
 359.411 474.359 359.411 474.359 360.973 508.613 c 0,0,0
 362.246 536.56 362.246 536.56 346.019 560.682 c 128,-1,9
 329.791 584.804 329.791 584.804 308.037 593.738 c 128,-1,10
 286.283 602.673 286.283 602.673 262.331 602.673 c 0,0,0
 259.159 602.673 259.159 602.673 243.545 601.941 c 128,-1,11
 227.932 601.209 227.932 601.209 204.868 590.306 c 128,-1,12
 181.805 579.403 181.805 579.403 166.902 555.808 c 128,-1,13
 152 532.213 152 532.213 152 501 c 0,0,1
54.6816 625.323 m 0
 90.3662 680.772 90.3662 680.772 145.224 705.707 c 0
 198.668 730 198.668 730 260 730 c 0
 321.413 730 321.413 730 373.917 705.643 c 0
 427.818 680.637 427.818 680.637 462.47 625.085 c 0
 495.517 572.104 495.517 572.104 496.031 500.168 c 0
 496.058 496.439 496.058 496.439 495.978 495.202 c 0
 489.858 399.982 489.858 399.982 435.216 254.948 c 0
 380.889 110.754 380.889 110.754 298.577 -11.1895 c 2
 292.573 -20.083 l 1
 113.625 -18.6855 l 1
 208.074 104.097 l 2
 228.313 131.083 228.313 131.083 260.241 185.606 c 0
 291.103 238.309 291.103 238.309 309.521 286.366 c 1
 277.761 276 277.761 276 238 276 c 0
 182.472 276 182.472 276 134.386 298.95 c 0
 85.2686 322.393 85.2686 322.393 52.1943 373.657 c 0
 19 425.108 19 425.108 19 495 c 0
 19 569.88 19 569.88 54.6816 625.323 c 0
EndSplineSet
EndChar

StartChar: colon
Encoding: 58 58 29
Width: 161
GlyphClass: 2
Flags: HW
LayerCount: 2
Fore
SplineSet
26.854 463.684 m 128,-1,2
 51.708 483.836 51.708 483.836 66.3452 484.176 c 128,-1,3
 80.9824 484.517 80.9824 484.517 81.9297 484.517 c 0,0,0
 109.521 484.517 109.521 484.517 134.26 465.126 c 128,-1,4
 159 445.735 159 445.735 159 410 c 0,5,6
 159 373.665 159 373.665 134.136 352.833 c 128,-1,7
 109.271 332 109.271 332 80.5908 332 c 128,-1,8
 51.9102 332 51.9102 332 26.9551 352.234 c 128,-1,9
 2 372.468 2 372.468 2 409 c 0,0,1
 2 443.532 2 443.532 26.854 463.684 c 128,-1,2
25.1904 132.001 m 128,-1,12
 49.3809 152.832 49.3809 152.832 64.4312 153.174 c 128,-1,13
 79.4814 153.517 79.4814 153.517 80.415 153.517 c 0,0,0
 108.821 153.517 108.821 153.517 132.911 133.442 c 128,-1,14
 157 113.367 157 113.367 157 77 c 0,15,16
 157 39.2021 157 39.2021 132.89 17.1011 c 128,-1,17
 108.779 -5 108.779 -5 79.0879 -5 c 128,-1,18
 49.3965 -5 49.3965 -5 25.1982 16.5093 c 128,-1,19
 1 38.0186 1 38.0186 1 75 c 0,10,11
 1 111.171 1 111.171 25.1904 132.001 c 128,-1,12
EndSplineSet
EndChar

StartChar: semicolon
Encoding: 59 59 30
Width: 154
GlyphClass: 2
Flags: HW
LayerCount: 2
Fore
SplineSet
21.3794 469.684 m 128,-1,2
 45.7588 490 45.7588 490 74.8105 490 c 128,-1,3
 103.862 490 103.862 490 128.431 470.891 c 128,-1,4
 153 451.781 153 451.781 153 416 c 0,5,6
 153 379.829 153 379.829 128.712 358.915 c 128,-1,7
 104.425 338 104.425 338 75.0918 338 c 128,-1,8
 45.7588 338 45.7588 338 21.3794 358.316 c 128,-1,9
 -3 378.633 -3 378.633 -3 414 c 0,0,1
 -3 449.367 -3 449.367 21.3794 469.684 c 128,-1,2
26.9492 147.655 m 0
 50.376 167.828 50.376 167.828 79.0352 168.494 c 0
 79.918 168.516 79.918 168.516 80.7998 168.516 c 0
 109.295 168.516 109.295 168.516 131.995 147.761 c 0
 156 125.813 156 125.813 156 88 c 0
 156 64.7305 156 64.7305 145.757 41.833 c 0
 136.312 20.7197 136.312 20.7197 126.908 8.37891 c 0
 117.172 -4.40039 117.172 -4.40039 95.8457 -20.1143 c 2
 73.2256 -36.7012 l 2
 68.5332 -40.0537 68.5332 -40.0537 50.3574 -49.6758 c 0
 35.1416 -57.7314 35.1416 -57.7314 24.9121 -43.8818 c 0
 14.6836 -30.0322 14.6836 -30.0322 26.8574 -17.8574 c 0
 29.8213 -14.8945 29.8213 -14.8945 34.4424 -6.42285 c 0
 40.1084 3.96582 40.1084 3.96582 45.3184 15.333 c 0
 48.8018 22.9326 48.8018 22.9326 51.2832 29.4902 c 1
 35.5967 31.7109 35.5967 31.7109 22.4414 43.3516 c 0
 5.93555 57.957 5.93555 57.957 2.70996 78.9307 c 0
 1.93555 83.9707 1.93555 83.9707 1.93555 89.3262 c 0
 1.93555 89.7686 1.93555 89.7686 1.97266 90.8975 c 0
 2.01074 92.0273 2.01074 92.0273 2.01172 92.4756 c 0
 2.07422 126.234 2.07422 126.234 26.9492 147.655 c 0
EndSplineSet
EndChar

StartChar: less
Encoding: 60 60 31
Width: 618
GlyphClass: 2
Flags: HW
LayerCount: 2
Fore
SplineSet
555 628.177 m 1
 555 483.617 l 1
 327.534 370.338 l 1,0,0
 550.116 250.903 l 1
 548.681 103.021 l 1
 149.413 313.45 l 1,5,-1
 39.6338 375.558 l 1
 133.286 420.001 l 1,7,-1
 555 628.177 l 1
EndSplineSet
EndChar

StartChar: equal
Encoding: 61 61 32
Width: 665
GlyphClass: 2
Flags: HW
LayerCount: 2
Fore
SplineSet
94.4502 309.044 m 1
 576.459 307.954 l 1
 573.55 179.956 l 1
 91.541 181.046 l 1
 94.4502 309.044 l 1
89.5391 547.046 m 1
 571.552 545.956 l 1
 574.461 417.954 l 1
 92.4482 419.044 l 1
 89.5391 547.046 l 1
EndSplineSet
EndChar

StartChar: greater
Encoding: 62 62 33
Width: 618
GlyphClass: 2
Flags: HW
LayerCount: 2
Fore
SplineSet
484.714 420.001 m 1,1,-1
 578.367 375.558 l 1
 468.587 313.45 l 1,3,-1
 69.3193 103.021 l 1
 67.8838 250.903 l 1
 290.466 370.338 l 1,0,0
 63 483.617 l 1
 63 628.177 l 1
 484.714 420.001 l 1,1,-1
EndSplineSet
EndChar

StartChar: question
Encoding: 63 63 34
Width: 548
GlyphClass: 2
Flags: HW
LayerCount: 2
Fore
SplineSet
203.169 644.243 m 128,-1,2
 185.204 636.485 185.204 636.485 175.061 624.577 c 128,-1,3
 164.917 612.669 164.917 612.669 149.591 596.321 c 2,4,-1
 131.596 577.127 l 1
 68.2266 681.233 l 1
 78.0518 692.287 l 2,5,6
 113.039 731.648 113.039 731.648 156.983 750.324 c 128,-1,7
 200.927 769 200.927 769 261 769 c 0,8,9
 357.941 769 357.941 769 416.471 713.815 c 128,-1,10
 475 658.631 475 658.631 475 568 c 0,11,12
 475 521.158 475 521.158 455.206 482.67 c 128,-1,13
 435.412 444.182 435.412 444.182 392.39 400.109 c 2,14,-1
 350.574 356.305 l 2,15,16
 316.716 319.7 316.716 319.7 311.358 302.803 c 128,-1,17
 306 285.905 306 285.905 306 237 c 2,18,-1
 306 235.827 l 1
 301.891 200.896 l 1
 166.352 193.909 l 1
 168.005 248.303 l 2,21,22
 168.005 310.603 168.005 310.603 185.709 347.118 c 128,-1,23
 203.413 383.633 203.413 383.633 243.532 424.808 c 2,24,-1
 286.73 471.005 l 1,25,26
 299.404 483.21 l 130,-1,27
 312.077 495.415 312.077 495.415 319.43 505.065 c 128,-1,28
 326.783 514.716 326.783 514.716 332.348 522.849 c 128,-1,29
 337.912 530.982 337.912 530.982 340.556 538.914 c 128,-1,30
 343.2 546.846 343.2 546.846 343.2 553.2 c 0,0,0
 343.2 554.082 343.2 554.082 343.128 555.163 c 0
 343.057 556.244 343.057 556.244 343.038 556.906 c 0,31,32
 341.564 610.565 341.564 610.565 316.139 631.283 c 0
 290.714 652 290.714 652 248 652 c 0,0,1
 221.134 652 221.134 652 203.169 644.243 c 128,-1,2
182.19 117.001 m 128,-1,35
 206.381 137.832 206.381 137.832 221.431 138.174 c 128,-1,36
 236.481 138.517 236.481 138.517 237.415 138.517 c 0,0,0
 265.821 138.517 265.821 138.517 289.911 118.442 c 128,-1,37
 314 98.3672 314 98.3672 314 62 c 0,38,39
 314 24.2021 314 24.2021 289.89 2.10107 c 128,-1,40
 265.779 -20 265.779 -20 236.088 -20 c 128,-1,41
 206.396 -20 206.396 -20 182.198 1.50928 c 128,-1,42
 158 23.0186 158 23.0186 158 60 c 0,33,34
 158 96.1709 158 96.1709 182.19 117.001 c 128,-1,35
EndSplineSet
EndChar

StartChar: at
Encoding: 64 64 35
Width: 905
GlyphClass: 2
Flags: HW
LayerCount: 2
Fore
SplineSet
657.042 43.9229 m 0
 638.368 33.7852 638.368 33.7852 605.62 21.3105 c 0
 571.915 8.4707 571.915 8.4707 531.076 3.16699 c 0
 491.293 -2 491.293 -2 438 -2 c 0
 369.513 -2 369.513 -2 309.231 19.6797 c 0
 248.764 41.4277 248.764 41.4277 206.968 77.3281 c 0
 165.862 112.637 165.862 112.637 135.829 157.951 c 0
 105.604 203.555 105.604 203.555 91.7539 252.561 c 0
 78 301.229 78 301.229 78 350 c 0
 78 496.301 78 496.301 166.629 602.796 c 0
 214.674 660.526 214.674 660.526 298.291 695.455 c 0
 380.99 730 380.99 730 464 730 c 0
 540.018 730 540.018 730 610.901 708.109 c 0
 684.353 685.426 684.353 685.426 728.151 647.066 c 0
 785.504 596.837 785.504 596.837 813.681 523.143 c 0
 841 451.693 841 451.693 841 371 c 0
 841 310.256 841 310.256 826.646 273.265 c 0
 811.317 233.765 811.317 233.765 767.189 194.968 c 0
 730.028 162.296 730.028 162.296 677.009 154.228 c 0
 669.323 153.059 669.323 153.059 661.817 152.435 c 1
 726.594 86.3359 l 1
 705.701 73.1035 l 2
 675.133 53.7441 675.133 53.7441 657.042 43.9229 c 0
516 544.686 m 1
 516 555 l 1
 630.524 555 l 1
 623.945 465.519 l 2
 620.379 417.021 620.379 417.021 619.456 403.17 c 0
 618.6 390.333 618.6 390.333 618.6 373.18 c 0
 618.6 361.59 618.6 361.59 618.991 348.079 c 0
 619.931 315.668 619.931 315.668 624.524 281.832 c 1
 630.298 267.618 630.298 267.618 654.201 263.742 c 0
 660.011 262.8 660.011 262.8 665.28 262.8 c 0
 684.516 262.8 684.516 262.8 697.857 276.143 c 0
 719.994 298.279 719.994 298.279 724.971 310.527 c 0
 729.99 322.883 729.99 322.883 730 367.078 c 0
 730 367.594 730 367.594 730.006 368.593 c 0
 730.012 369.592 730.012 369.592 730.012 370.114 c 0
 730.012 486.653 730.012 486.653 656.196 556.528 c 0
 625.487 585.598 625.487 585.598 573.677 601.366 c 0
 519.024 618 519.024 618 465 618 c 0
 401.852 618 401.852 618 340.428 593.431 c 0
 280.237 569.354 280.237 569.354 249.851 529.804 c 0
 195 458.41 195 458.41 195 350 c 0
 195 313.892 195 313.892 211.541 273 c 0
 228.415 231.282 228.415 231.282 259.022 193.612 c 0
 288.929 156.804 288.929 156.804 336.786 131.713 c 0
 383.886 107.021 383.886 107.021 438.439 105.995 c 0
 453.367 105.714 453.367 105.714 458.571 105.714 c 0
 482.739 105.714 482.739 105.714 503.339 107.431 c 0
 531.422 109.771 531.422 109.771 549.07 114.749 c 0
 567.456 119.935 567.456 119.935 583.385 126.493 c 0
 598.004 132.514 598.004 132.514 608.98 139.69 c 2
 628.474 152.437 l 1
 604.533 154.548 604.533 154.548 582.87 162.814 c 0
 549.826 175.423 549.826 175.423 530.863 198.812 c 1
 497.015 180.635 497.015 180.635 457.034 177.559 c 0
 448.102 176.872 448.102 176.872 439.344 176.872 c 0
 398.969 176.872 398.969 176.872 362.572 191.431 c 0
 316.891 209.703 316.891 209.703 285.954 255.265 c 0
 255.123 300.67 255.123 300.67 254.004 362.595 c 0
 253.938 366.285 253.938 366.285 253.938 368.467 c 0
 253.938 413.271 253.938 413.271 269.577 450.284 c 0
 286.499 490.334 286.499 490.334 315.318 513.965 c 0
 343.02 536.681 343.02 536.681 377.312 548.849 c 0
 407.837 559.68 407.837 559.68 440.496 559.68 c 0
 444.928 559.68 444.928 559.68 449.395 559.48 c 0
 486.006 557.841 486.006 557.841 516 544.686 c 1
367 366 m 0,77,78
 367 338.906 367 338.906 380.115 318.637 c 128,-1,79
 393.23 298.367 393.23 298.367 412.261 291.136 c 128,-1,80
 431.291 283.904 431.291 283.904 451.057 283.904 c 1,0,0
 450.546 283.904 450.546 283.904 452.486 283.93 c 0
 454.427 283.954 454.427 283.954 464.71 284.35 c 128,-1,81
 474.994 284.745 474.994 284.745 492.023 297.517 c 128,-1,82
 509.052 310.288 509.052 310.288 514.521 331.448 c 0,83,84
 515.6 335.62 515.6 335.62 515.6 357.08 c 0,0,0
 515.6 362.24 515.6 362.24 515.333 378.501 c 128,-1,85
 515.066 394.763 515.066 394.763 514.264 405.128 c 1,0,0
 506.947 428.03 506.947 428.03 490.757 441.585 c 128,-1,88
 474.566 455.14 474.566 455.14 464.596 455.331 c 128,-1,89
 454.625 455.522 454.625 455.522 453.639 455.522 c 0,0,0
 432.894 455.522 432.894 455.522 413.253 447.274 c 128,-1,90
 393.613 439.025 393.613 439.025 380.307 417.654 c 128,-1,91
 367 396.282 367 396.282 367 366 c 0,77,78
EndSplineSet
EndChar

StartChar: A
Encoding: 65 65 36
Width: 674
GlyphClass: 2
Flags: HW
LayerCount: 2
Fore
SplineSet
388.275 647.125 m 1,0,-1
 683.751 -19 l 1,1,-1
 545.33 -19 l 1,2,-1
 459.33 163 l 1,3,-1
 209.99 163 l 1,4,-1
 128.99 -19 l 1,5,-1
 -9.21582 -19 l 1,6,-1
 280.51 663.621 l 1,7,-1
 328.005 782.365 l 1,8,-1
 388.275 647.125 l 1,0,-1
403.926 286 m 1,9,-1
 330.646 460.744 l 1,10,-1
 262.298 286 l 1,11,-1
 403.926 286 l 1,9,-1
EndSplineSet
EndChar

StartChar: B
Encoding: 66 66 37
Width: 517
GlyphClass: 2
Flags: HW
LayerCount: 2
Fore
SplineSet
24 708 m 1
 250.056 708 l 1
 252.979 706.051 l 1
 299.023 705.823 299.023 705.823 336.744 687.487 c 0
 377.206 667.818 377.206 667.818 400.638 635.814 c 0
 423.514 604.569 423.514 604.569 432.95 565.157 c 0
 438.661 541.308 438.661 541.308 438.661 518.314 c 0
 438.661 503.309 438.661 503.309 436.228 488.712 c 0
 429.936 450.959 429.936 450.959 405.566 418.089 c 0
 395.326 404.276 395.326 404.276 382.234 393.102 c 1
 405.906 383.956 405.906 383.956 425.718 366.51 c 0
 463.239 333.469 463.239 333.469 479.451 285.391 c 0
 492.181 247.643 492.181 247.643 492.181 205.504 c 0
 492.181 195.419 492.181 195.419 491.45 185.09 c 0
 487.662 131.519 487.662 131.519 464.303 85.8867 c 0
 440.148 38.7012 440.148 38.7012 389.124 8.75195 c 0
 341.608 -19.1377 341.608 -19.1377 279.476 -19.1377 c 0
 275.648 -19.1377 275.648 -19.1377 271.7 -19.0293 c 2
 261.995 -19.9502 l 1
 73 -20 l 1
 73 -19.4121 l 1
 24 -20.4121 l 1
 24 708 l 1
151 596 m 1
 151 427 l 1
 241.56 427 l 1
 270.15 431.321 270.15 431.321 288.014 448.797 c 0
 306.104 466.493 306.104 466.493 309.182 489.188 c 0
 310.333 497.684 310.333 497.684 310.333 506.111 c 0
 310.333 522.959 310.333 522.959 305.72 539.682 c 0
 299.5 562.229 299.5 562.229 278.806 578.147 c 0
 257.96 594.183 257.96 594.183 227.46 595.008 c 2
 208 595.533 l 1
 151 596 l 1
208 596 m 1
 208 616 l 1
 228 596 l 1
 208 596 l 1
151 314 m 1
 151 115 l 1
 283.744 114.997 l 2
 314.736 115.791 314.736 115.791 334.149 134.428 c 0
 353.948 153.435 353.948 153.435 357.129 181.271 c 0
 358.28 191.339 358.28 191.339 358.28 201.349 c 0
 358.28 222.612 358.28 222.612 353.081 243.716 c 0
 346.041 272.29 346.041 272.29 323.561 292.688 c 0
 302.05 312.208 302.05 312.208 272.46 313.007 c 2
 253 313.533 l 1
 151 314 l 1
253 314 m 1
 253 334 l 1
 273 314 l 1
 253 314 l 1
EndSplineSet
EndChar

StartChar: C
Encoding: 67 67 38
Width: 694
GlyphClass: 2
Flags: HW
LayerCount: 2
Fore
SplineSet
587.486 689.109 m 0,0,1
 610.504 678.415 610.504 678.415 621.847 670.654 c 128,-1,2
 633.19 662.893 633.19 662.893 655.016 644.186 c 2,3,-1
 672.428 629.261 l 1,4,-1
 568.313 536.878 l 1,5,-1
 555.213 553.721 l 2,6,7
 544.952 566.914 544.952 566.914 502.291 580.983 c 128,-1,8
 459.629 595.052 459.629 595.052 428.336 596.012 c 0,9,10
 422.889 596.178 422.889 596.178 419.393 596.178 c 0,11,12
 349.159 596.178 349.159 596.178 279.847 553.141 c 128,-1,13
 210.534 510.104 210.534 510.104 177.123 438.541 c 0,14,15
 152.053 384.843 152.053 384.843 152.053 332.611 c 0,16,17
 152.053 292.082 152.053 292.082 176.86 226.59 c 128,-1,18
 201.668 161.098 201.668 161.098 298.448 116.128 c 0,19,20
 346.266 93.9092 346.266 93.9092 371.473 93.459 c 129,-1,21
 396.681 93.0088 396.681 93.0088 399.26 92.9785 c 128,-1,22
 401.84 92.9473 401.84 92.9473 402.877 92.9473 c 0,23,24
 452.082 92.9473 452.082 92.9473 497.262 109.376 c 128,-1,25
 542.442 125.806 542.442 125.806 586.112 158.084 c 2,26,-1
 600.753 168.905 l 1,27,-1
 686.142 73.5547 l 1,28,-1
 671.453 60.2012 l 2,29,30
 624.573 17.583 624.573 17.583 560.362 -6.10156 c 128,-1,31
 496.151 -29.7861 496.151 -29.7861 456.15 -32.1997 c 128,-1,32
 416.148 -34.6133 416.148 -34.6133 397.749 -34.6133 c 0,33,34
 358.165 -34.6133 358.165 -34.6133 312.373 -27.9448 c 128,-1,35
 266.581 -21.2764 266.581 -21.2764 230.821 -2.76953 c 0,36,37
 84.8486 72.7764 84.8486 72.7764 50.478 168.791 c 128,-1,38
 16.1074 264.805 16.1074 264.805 16.1074 323.162 c 0,39,40
 16.1074 406.22 16.1074 406.22 56.8809 493.469 c 0,41,42
 108.556 604.041 108.556 604.041 206.677 663.217 c 128,-1,43
 304.798 722.394 304.798 722.394 412.455 722.394 c 0,44,45
 419.111 722.394 419.111 722.394 430.787 721.984 c 0,46,47
 523.747 718.725 523.747 718.725 587.486 689.109 c 0,0,1
EndSplineSet
EndChar

StartChar: D
Encoding: 68 68 39
Width: 611
GlyphClass: 2
Flags: HW
LayerCount: 2
Fore
SplineSet
178.556 712.333 m 0,0,0
 189.27 712.333 189.27 712.333 205.86 711.891 c 128,-1,2
 222.451 711.448 222.451 711.448 255.173 710.998 c 0,3,4
 315.749 710.166 315.749 710.166 368.783 692.488 c 128,-1,5
 421.816 674.81 421.816 674.81 457.058 645.976 c 128,-1,6
 492.299 617.143 492.299 617.143 514.089 589.905 c 128,-1,7
 535.879 562.667 535.879 562.667 549.078 534.553 c 0,8,9
 583.598 461.029 583.598 461.029 587.478 410.259 c 128,-1,10
 591.358 359.489 591.358 359.489 591.358 341.363 c 0,0,0
 591.358 279.188 591.358 279.188 572.146 213.117 c 128,-1,11
 552.934 147.046 552.934 147.046 498.041 85.7578 c 128,-1,12
 443.148 24.4697 443.148 24.4697 363.438 -2.93555 c 0,13,14
 342.331 -10.1914 342.331 -10.1914 288.476 -19.6953 c 2,15,16
 286.751 -20 l 1
 285 -20 l 2,15,16
 269.173 -20 269.173 -20 240.173 -20.5 c 128,-1,17
 211.173 -21 211.173 -21 194.022 -21 c 128,-1,18
 176.872 -21 176.872 -21 137.744 -19.9971 c 2,19,-1
 19 -20 l 1
 19 711 l 1
 143.981 711 l 2,0,0
 157.423 712.333 157.423 712.333 178.556 712.333 c 0,0,0
435.432 468.571 m 0,22,23
 411.965 526.816 411.965 526.816 363.327 560.908 c 128,-1,24
 314.688 595 314.688 595 246 595 c 0,25,26
 240.873 595 240.873 595 215.535 595.333 c 128,-1,27
 190.196 595.667 190.196 595.667 178.11 595.667 c 0,0,0
 164.314 595.667 164.314 595.667 151.11 595.452 c 1,0,0
 153.888 102.922 l 1,0,0
 179.413 102.72 179.413 102.72 193.61 102.283 c 128,-1,31
 207.808 101.846 207.808 101.846 212.689 101.846 c 0,0,0
 239.879 101.846 239.879 101.846 274.466 106.543 c 128,-1,32
 309.054 111.24 309.054 111.24 341.381 124.49 c 0,33,34
 385.744 142.675 385.744 142.675 413.237 187.744 c 128,-1,35
 440.729 232.813 440.729 232.813 446.561 276.742 c 128,-1,36
 452.392 320.67 452.392 320.67 452.392 354.281 c 0,0,0
 452.392 372.146 452.392 372.146 449.809 405.721 c 128,-1,37
 447.226 439.297 447.226 439.297 435.432 468.571 c 0,22,23
EndSplineSet
EndChar

StartChar: E
Encoding: 69 69 40
Width: 483
GlyphClass: 2
Flags: HW
LayerCount: 2
Fore
SplineSet
34 713 m 1,0,-1
 440 713 l 1,1,-1
 440 588 l 1,2,-1
 166 588 l 1,3,-1
 166 432 l 1,4,-1
 362 432 l 1,5,-1
 362 309 l 1,6,-1
 166 309 l 1,7,-1
 166 102 l 1,8,-1
 449 102 l 1,9,-1
 449 -20 l 1,10,-1
 34 -20 l 1,11,-1
 34 713 l 1,0,-1
EndSplineSet
EndChar

StartChar: F
Encoding: 70 70 41
Width: 469
GlyphClass: 2
Flags: HW
LayerCount: 2
Fore
SplineSet
38 711 m 1
 431 711 l 1
 431 589 l 1
 171 589 l 1,0,0
 171 432 l 1,0,0
 366 432 l 1
 366 309 l 1
 171 309 l 1,0,0
 171 -20 l 1
 38 -20 l 1
 38 711 l 1
EndSplineSet
EndChar

StartChar: G
Encoding: 71 71 42
Width: 704
GlyphClass: 2
Flags: HW
LayerCount: 2
Fore
SplineSet
692 115.96 m 2,0,1
 692 89.0254 692 89.0254 665.639 74.5244 c 1,2,3
 619.367 32.1572 619.367 32.1572 555.872 8.21631 c 128,-1,4
 492.377 -15.7246 492.377 -15.7246 449.526 -18.9927 c 128,-1,5
 406.675 -22.2607 406.675 -22.2607 383.975 -22.2607 c 0,6,7
 348.495 -22.2607 348.495 -22.2607 304.244 -16.2461 c 128,-1,8
 259.992 -10.2314 259.992 -10.2314 224.755 8.26562 c 0,9,10
 129.696 58.1631 129.696 58.1631 75.1519 135.479 c 128,-1,11
 20.6074 212.795 20.6074 212.795 15.6885 263.296 c 128,-1,12
 10.7695 313.798 10.7695 313.798 10.7695 332.592 c 0,13,14
 10.7695 395.127 10.7695 395.127 33.9727 467.521 c 128,-1,15
 57.1758 539.916 57.1758 539.916 111.408 603.625 c 128,-1,16
 165.64 667.334 165.64 667.334 245.117 703.782 c 128,-1,17
 324.594 740.23 324.594 740.23 410.37 740.23 c 0,18,19
 417.565 740.23 417.565 740.23 424.678 739.988 c 0,20,21
 516.95 736.846 516.95 736.846 581.608 706.053 c 0,22,23
 605.783 694.539 605.783 694.539 616.487 687.216 c 128,-1,24
 627.19 679.893 627.19 679.893 649.016 661.186 c 2,25,-1
 666.291 646.378 l 1,26,-1
 561.406 551.834 l 1,27,-1
 548.494 570.706 l 2,28,29
 539.393 584.008 539.393 584.008 496.157 597.661 c 128,-1,30
 452.922 611.314 452.922 611.314 422.043 613.024 c 0,31,32
 419.292 613.177 419.292 613.177 413.486 613.177 c 0,33,34
 343.255 613.177 343.255 613.177 273.701 569.535 c 128,-1,35
 204.147 525.893 204.147 525.893 171.153 454.607 c 0,36,37
 146.053 400.374 146.053 400.374 146.053 346.839 c 0,38,39
 146.053 305.784 146.053 305.784 171.055 239.444 c 128,-1,40
 196.058 173.104 196.058 173.104 292.582 127.064 c 0,41,42
 336.891 105.931 336.891 105.931 361.542 105.47 c 129,-1,43
 386.192 105.009 386.192 105.009 388.788 104.977 c 128,-1,44
 391.385 104.944 391.385 104.944 392.428 104.944 c 0,45,46
 439.229 104.944 439.229 104.944 480.822 119.675 c 128,-1,47
 522.415 134.406 522.415 134.406 561.3 159.859 c 1,48,-1
 564.425 270 l 1,49,-1
 426.728 270 l 1,50,-1
 428.268 383.912 l 1,51,-1
 693.081 385.09 l 1,52,-1
 692 115.96 l 2,0,1
EndSplineSet
EndChar

StartChar: H
Encoding: 72 72 43
Width: 630
GlyphClass: 2
Flags: HW
LayerCount: 2
Fore
SplineSet
461 714 m 1
 592 714 l 1
 592 -20 l 1
 461 -20 l 1
 461 291.061 l 1,0,0
 171 291.939 l 1,0,0
 171 -20 l 1
 38 -20 l 1
 38 710 l 1
 169.728 710 l 1
 170.999 617.137 l 1,10,-1
 171 414 l 1,0,0
 461 414 l 1,0,0
 461 714 l 1
EndSplineSet
EndChar

StartChar: I
Encoding: 73 73 44
Width: 207
GlyphClass: 2
Flags: HW
LayerCount: 2
Fore
SplineSet
37.9717 716 m 1,0,-1
 167.972 716 l 1,1,-1
 169.029 -19 l 1,2,-1
 39.0283 -19 l 1,3,-1
 37.9717 716 l 1,0,-1
EndSplineSet
EndChar

StartChar: J
Encoding: 74 74 45
Width: 396
GlyphClass: 2
Flags: HW
LayerCount: 2
Fore
SplineSet
122.34 64.8442 m 129,-1,1
 138.765 64.0127 138.765 64.0127 141.682 63.9131 c 128,-1,2
 144.599 63.8135 144.599 63.8135 145.779 63.8135 c 0,3,4
 175.24 63.8135 175.24 63.8135 200.273 79.3105 c 128,-1,5
 225.307 94.8076 225.307 94.8076 242.677 133.022 c 128,-1,6
 260.048 171.237 260.048 171.237 260.048 222.415 c 0,7,8
 260.048 225.022 260.048 225.022 260.003 227.683 c 2,9,-1
 252.701 720 l 1,10,-1
 383.627 720 l 1,11,-1
 392.994 222.474 l 2,12,13
 393.16 216.67 393.16 216.67 393.16 210.893 c 0,14,15
 393.16 143.58 393.16 143.58 369.324 86.0635 c 128,-1,16
 345.488 28.5469 345.488 28.5469 303.428 -4.77393 c 128,-1,17
 261.367 -38.0947 261.367 -38.0947 220.335 -50.1367 c 128,-1,18
 179.303 -62.1787 179.303 -62.1787 145.824 -62.1787 c 0,19,20
 127.284 -62.1787 127.284 -62.1787 91.6406 -56.667 c 128,-1,21
 55.9971 -51.1553 55.9971 -51.1553 11.5879 -24.0762 c 2,22,-1
 -4.35156 -14.3574 l 1,23,-1
 55.9229 101.781 l 1,24,-1
 74.71 88.2139 l 2,25,0
 105.916 65.6758 105.916 65.6758 122.34 64.8442 c 129,-1,1
EndSplineSet
EndChar

StartChar: K
Encoding: 75 75 46
Width: 636
GlyphClass: 2
Flags: HW
LayerCount: 2
Fore
SplineSet
404.658 706 m 1
 570.514 706 l 1
 275.805 362.526 l 1,0,0
 632.864 -22 l 1
 463.202 -22 l 1
 162 306.584 l 1,0,0
 162 -22 l 1
 29 -22 l 1
 29 706 l 1
 162 706 l 1
 162 416.059 l 1,0,0
 404.658 706 l 1
EndSplineSet
EndChar

StartChar: L
Encoding: 76 76 47
Width: 474
GlyphClass: 2
Flags: HW
LayerCount: 2
Fore
SplineSet
162 105 m 1,0,0
 445 105 l 1
 445 -18 l 1
 29 -18 l 1
 29 711.216 l 1
 162 709.786 l 1
 162 105 l 1,0,0
EndSplineSet
EndChar

StartChar: M
Encoding: 77 77 48
Width: 734
GlyphClass: 2
Flags: HW
LayerCount: 2
Fore
SplineSet
368.97 363.8 m 1,0,0
 671.246 776.38 l 1
 709.991 -24 l 1
 584.3 -24 l 1
 555.625 402.418 l 1,0,0
 369.066 157.042 l 1
 178.396 405.742 l 1,0,0
 149.7 -21 l 1
 24.0098 -21 l 1
 62.7432 780.227 l 1
 368.97 363.8 l 1,0,0
EndSplineSet
EndChar

StartChar: N
Encoding: 78 78 49
Width: 646
GlyphClass: 2
Flags: HW
LayerCount: 2
Fore
SplineSet
165 414.662 m 1,0,0
 165 -17 l 1
 38 -17 l 1
 38 752.241 l 1
 482.679 256.599 l 1,0,0
 479.878 716 l 1
 608 716 l 1
 608 -80.3379 l 1
 165 414.662 l 1,0,0
EndSplineSet
EndChar

StartChar: O
Encoding: 79 79 50
Width: 752
GlyphClass: 2
Flags: HW
LayerCount: 2
Fore
SplineSet
354.147 607.001 m 2,0,1
 300.696 606.964 300.696 606.964 258.515 585.646 c 128,-1,2
 216.333 564.329 216.333 564.329 190.738 529.137 c 128,-1,3
 165.144 493.944 165.144 493.944 151.541 449.507 c 128,-1,4
 137.938 405.07 137.938 405.07 137.938 360.367 c 0,5,6
 137.938 357.383 137.938 357.383 138.436 331.956 c 128,-1,7
 138.935 306.529 138.935 306.529 154.872 260.124 c 128,-1,8
 170.809 213.719 170.809 213.719 198.331 178.857 c 128,-1,9
 225.853 143.996 225.853 143.996 270.221 122.498 c 128,-1,10
 314.59 101 314.59 101 370 101 c 0,11,12
 426.613 101 426.613 101 473.527 122.617 c 128,-1,13
 520.441 144.234 520.441 144.234 549.346 179.562 c 128,-1,14
 578.25 214.889 578.25 214.889 594.141 261.161 c 128,-1,15
 610.032 307.433 610.032 307.433 610.273 332.206 c 128,-1,16
 610.514 356.979 610.514 356.979 610.514 358.282 c 0,17,18
 610.514 404.768 610.514 404.768 593.978 449.78 c 128,-1,19
 577.442 494.793 577.442 494.793 547.614 530.128 c 128,-1,20
 517.786 565.464 517.786 565.464 468.977 586.253 c 128,-1,21
 420.168 607.042 420.168 607.042 359.643 607.042 c 2,22,-1
 355.418 607.005 l 1,23,-1
 354.147 607.001 l 2,0,1
529.604 694.285 m 128,-1,25
 605.06 661.57 605.06 661.57 651.772 608.488 c 128,-1,26
 698.485 555.405 698.485 555.405 722.998 488.647 c 128,-1,27
 747.511 421.89 747.511 421.89 747.511 353.231 c 2,28,-1
 747.242 316.788 l 2,29,30
 746.973 280.345 746.973 280.345 722.222 213.463 c 128,-1,31
 697.471 146.582 697.471 146.582 651.274 94.0142 c 128,-1,32
 605.078 41.4463 605.078 41.4463 531.123 9.22314 c 128,-1,33
 457.168 -23 457.168 -23 368 -23 c 0,34,35
 280.662 -23 280.662 -23 209.572 9.36182 c 128,-1,36
 138.482 41.7236 138.482 41.7236 94.8765 94.9014 c 128,-1,37
 51.2705 148.079 51.2705 148.079 28.1353 214.856 c 128,-1,38
 5 281.634 5 281.634 5 351.964 c 128,-1,39
 5 422.294 5 422.294 27.6025 489.05 c 128,-1,40
 50.2051 555.806 50.2051 555.806 93.2866 608.993 c 128,-1,41
 136.368 662.18 136.368 662.18 205.97 694.59 c 128,-1,42
 275.572 727 275.572 727 361 727 c 0,43,24
 454.149 727 454.149 727 529.604 694.285 c 128,-1,25
EndSplineSet
EndChar

StartChar: P
Encoding: 80 80 51
Width: 506
GlyphClass: 2
Flags: HW
LayerCount: 2
Fore
SplineSet
258.887 711.998 m 2,1,2
 261.08 712.034 261.08 712.034 263.186 712.034 c 0,0,0
 328.253 712.034 328.253 712.034 378.39 680.971 c 128,-1,3
 428.526 649.908 428.526 649.908 451.019 602.728 c 128,-1,4
 473.512 555.547 473.512 555.547 473.512 501.424 c 0,0,0
 473.512 500.117 473.512 500.117 473.233 471.676 c 128,-1,5
 472.954 443.234 472.954 443.234 449.159 395.091 c 128,-1,6
 425.364 346.947 425.364 346.947 373.785 315.457 c 128,-1,7
 322.206 283.967 322.206 283.967 253.379 283.967 c 0,0,0
 251.248 283.967 251.248 283.967 248.943 284.002 c 2,8,-1
 164 283.189 l 1,0,0
 164 -16.5703 l 1
 32 -19.4395 l 1
 32 713.097 l 1
 258.887 711.998 l 2,1,2
164 589.824 m 1,0,0
 164 405 l 1,0,0
 252 405 l 2,14,15
 277.788 405 277.788 405 296.994 418.204 c 128,-1,16
 316.2 431.408 316.2 431.408 325.715 451.679 c 128,-1,17
 335.229 471.949 335.229 471.949 335.962 486.124 c 128,-1,18
 336.695 500.299 336.695 500.299 336.695 503.497 c 0,0,0
 336.695 524.409 336.695 524.409 329.139 543.301 c 128,-1,19
 321.583 562.192 321.583 562.192 303.053 575.596 c 128,-1,20
 284.523 589 284.523 589 257.912 589 c 2,21,-1
 164 589.824 l 1,0,0
EndSplineSet
EndChar

StartChar: Q
Encoding: 81 81 52
Width: 763
GlyphClass: 2
Flags: HW
LayerCount: 2
Fore
SplineSet
360.149 607.001 m 2,0,1
 306.696 606.964 306.696 606.964 264.475 585.626 c 128,-1,2
 222.253 564.289 222.253 564.289 196.214 529.114 c 128,-1,3
 170.176 493.938 170.176 493.938 157.056 449.602 c 128,-1,4
 143.936 405.265 143.936 405.265 143.936 360.572 c 0,0,0
 143.936 357.486 143.936 357.486 144.435 332.008 c 128,-1,5
 144.935 306.529 144.935 306.529 160.872 260.124 c 128,-1,6
 176.809 213.719 176.809 213.719 204.331 178.857 c 128,-1,7
 231.853 143.996 231.853 143.996 276.221 122.498 c 128,-1,8
 320.59 101 320.59 101 375 101 c 0,9,10
 432.574 101 432.574 101 478.995 122.602 c 128,-1,11
 525.416 144.204 525.416 144.204 554.362 179.583 c 128,-1,12
 583.309 214.961 583.309 214.961 599.654 261.196 c 128,-1,13
 616 307.431 616 307.431 616 355.483 c 128,-1,14
 616 403.536 616 403.536 599.691 449.201 c 128,-1,15
 583.383 494.865 583.383 494.865 553.596 530.151 c 128,-1,16
 523.809 565.438 523.809 565.438 474.516 586.24 c 128,-1,17
 425.224 607.042 425.224 607.042 365.562 607.042 c 2,0,0
 361.423 607.005 l 1
 360.149 607.001 l 2,0,1
535.632 694.273 m 128,-1,20
 611.114 661.547 611.114 661.547 657.31 608.448 c 128,-1,21
 703.505 555.35 703.505 555.35 728.252 487.953 c 128,-1,22
 753 420.556 753 420.556 753 350.451 c 128,-1,23
 753 280.347 753 280.347 727.722 213.465 c 128,-1,24
 702.444 146.584 702.444 146.584 656.789 94.0273 c 128,-1,25
 611.134 41.4707 611.134 41.4707 537.151 9.23535 c 128,-1,26
 463.168 -23 463.168 -23 373 -23 c 0,27,28
 285.662 -23 285.662 -23 214.543 9.375 c 128,-1,29
 143.425 41.75 143.425 41.75 100.36 94.916 c 128,-1,30
 57.2959 148.082 57.2959 148.082 33.6479 214.822 c 128,-1,31
 10 281.562 10 281.562 10 351.964 c 128,-1,32
 10 422.366 10 422.366 33.1255 489.114 c 128,-1,33
 56.251 555.862 56.251 555.862 99.3096 609.021 c 128,-1,34
 142.368 662.18 142.368 662.18 211.97 694.59 c 128,-1,35
 281.572 727 281.572 727 367 727 c 0,18,19
 460.149 727 460.149 727 535.632 694.273 c 128,-1,20
586.918 212.32 m 1,36,-1
 736.825 45.8799 l 1
 630.716 -41.8369 l 1
 496.956 111.821 l 1,39,-1
 416.193 203.433 l 1
 520.301 287.574 l 1
 586.918 212.32 l 1,36,-1
EndSplineSet
EndChar

StartChar: R
Encoding: 82 82 53
Width: 489
GlyphClass: 2
Flags: HW
LayerCount: 2
Fore
SplineSet
255.76 720.998 m 2,1,2
 258.337 721.048 258.337 721.048 260.928 721.048 c 0,0,0
 314.57 721.048 314.57 721.048 358.969 699.39 c 128,-1,3
 403.368 677.731 403.368 677.731 428.982 641.538 c 128,-1,4
 454.597 605.345 454.597 605.345 462.869 569.644 c 128,-1,5
 471.141 533.943 471.141 533.943 471.141 507.842 c 0,0,0
 471.141 489.912 471.141 489.912 466.109 459.336 c 128,-1,6
 461.078 428.761 461.078 428.761 438.254 392.541 c 128,-1,7
 415.43 356.32 415.43 356.32 385.525 334.116 c 1,0,0
 555.853 -19 l 1
 410.442 -19 l 1
 259.815 293.229 l 1,0,0
 253.386 293 253.386 293 246.096 293 c 2,13,-1
 161.257 292.192 l 1,0,0
 165.259 -19 l 1
 32.0859 -19 l 1
 28.9141 719.903 l 1
 255.76 720.998 l 2,1,2
161 598 m 1,0,0
 161 414 l 1,0,0
 250 414 l 2,19,20
 274.788 414 274.788 414 294.067 427.254 c 128,-1,21
 313.347 440.509 313.347 440.509 323.253 460.734 c 128,-1,22
 333.159 480.96 333.159 480.96 333.625 494.471 c 128,-1,23
 334.091 507.981 334.091 507.981 334.091 510.239 c 0,0,0
 334.091 532.421 334.091 532.421 326.337 551.807 c 128,-1,24
 318.583 571.192 318.583 571.192 300.054 584.596 c 128,-1,25
 281.524 598 281.524 598 255 598 c 2,26,-1
 161 598 l 1,0,0
EndSplineSet
EndChar

StartChar: S
Encoding: 83 83 54
Width: 528
GlyphClass: 2
Flags: HW
LayerCount: 2
Fore
SplineSet
357.174 715.2 m 128,-1,2
 396.92 705.399 396.92 705.399 436.279 674.787 c 2,3,-1
 451.155 663.217 l 1
 382.013 562.51 l 1
 365.136 576.686 l 2,4,5
 328.715 607.28 328.715 607.28 272.832 607.28 c 0,0,0
 260.847 607.28 260.847 607.28 250.1 606.11 c 0,6,7
 221.258 602.973 221.258 602.973 202.094 583.809 c 128,-1,8
 182.93 564.646 182.93 564.646 181.184 551.554 c 128,-1,9
 179.438 538.462 179.438 538.462 179.438 535.529 c 0,0,0
 179.438 516.133 179.438 516.133 198.406 490.971 c 128,-1,10
 217.374 465.81 217.374 465.81 264.642 448.864 c 2,11,-1
 345.631 420.869 l 2,12,13
 375.879 410.065 375.879 410.065 404.549 391.673 c 128,-1,14
 433.22 373.281 433.22 373.281 458.167 344.538 c 128,-1,15
 483.113 315.795 483.113 315.795 497.591 282.549 c 128,-1,16
 512.069 249.304 512.069 249.304 512.069 208.041 c 0,0,0
 512.069 205.048 512.069 205.048 511.471 180.839 c 128,-1,17
 510.873 156.631 510.873 156.631 490.186 111.676 c 0,18,19
 427.414 -24.7246 427.414 -24.7246 251.378 -24.7246 c 0,0,0
 212.172 -24.7246 212.172 -24.7246 180.876 -19.748 c 0,20,21
 147.505 -14.4414 147.505 -14.4414 116.169 -4.57617 c 128,-1,22
 84.833 5.28906 84.833 5.28906 73.0039 10.6655 c 128,-1,23
 61.1748 16.042 61.1748 16.042 26.6426 34.3242 c 2,24,-1
 13.6543 41.2002 l 1
 39.0361 177.978 l 1
 62.4092 167.146 l 2,25,26
 140.685 130.872 140.685 130.872 196.098 116.339 c 0,27,28
 227.892 108 227.892 108 257.117 108 c 128,-1,29
 286.342 108 286.342 108 315.781 122.5 c 128,-1,30
 345.22 137 345.22 137 362.241 162.908 c 0,31,32
 376.308 184.32 376.308 184.32 376.308 207.218 c 0,0,0
 376.308 222.997 376.308 222.997 364.169 249.205 c 128,-1,33
 352.031 275.412 352.031 275.412 304.984 293.296 c 0,34,35
 289.834 299.055 289.834 299.055 262.945 310.454 c 0
 236.057 321.853 236.057 321.853 225.952 324.942 c 0,36,37
 158.385 345.604 158.385 345.604 115.196 382.928 c 128,-1,38
 72.0078 420.251 72.0078 420.251 57.9976 458.417 c 128,-1,39
 43.9873 496.583 43.9873 496.583 43.9873 530.089 c 0,0,0
 43.9873 542.754 43.9873 542.754 47.8901 572.557 c 128,-1,40
 51.793 602.36 51.793 602.36 77.6001 639.949 c 128,-1,41
 103.407 677.537 103.407 677.537 150.318 701.269 c 128,-1,42
 197.229 725 197.229 725 255 725 c 0,0,1
 317.429 725 317.429 725 357.174 715.2 c 128,-1,2
EndSplineSet
EndChar

StartChar: T
Encoding: 84 84 55
Width: 490
GlyphClass: 2
Flags: HW
LayerCount: 2
Fore
SplineSet
-4 706 m 1
 494 706 l 1
 494 586.109 l 1
 311.869 585.109 l 1,0,0
 307.868 -20 l 1
 176 -20 l 1
 176 1.0498 l 1,6,-1
 178.901 585.109 l 1,0,0
 -4 586.109 l 1
 -4 706 l 1
EndSplineSet
EndChar

StartChar: U
Encoding: 85 85 56
Width: 592
GlyphClass: 2
Flags: HW
LayerCount: 2
Fore
SplineSet
167 266.048 m 2,0,1
 167.187 226.942 167.187 226.942 178.335 195.727 c 0,2,3
 189.406 164.728 189.406 164.728 206.975 146.302 c 128,-1,4
 224.679 127.734 224.679 127.734 247.462 117.847 c 128,-1,5
 270.152 108 270.152 108 293.5 108 c 128,-1,6
 316.683 108 316.683 108 339.25 118.219 c 0,7,8
 362.322 128.667 362.322 128.667 380.692 147.475 c 0,9,10
 398.695 165.906 398.695 165.906 410.22 197.377 c 0,11,12
 422.08 229.767 422.08 229.767 423.005 270.454 c 2,13,-1
 424.068 317.217 l 1,14,-1
 424.883 316.401 l 1,15,-1
 423.951 702 l 1,16,-1
 554.809 702 l 1,17,-1
 558.998 265.25 l 2,18,19
 559.046 260.344 559.046 260.344 559.046 259.119 c 0,20,21
 559.046 193.738 559.046 193.738 537.52 140.948 c 0,22,23
 514.816 85.2715 514.816 85.2715 476.985 50.7305 c 0,24,25
 439.607 16.6025 439.607 16.6025 391.453 -1.25195 c 0,26,27
 346.132 -18.0576 346.132 -18.0576 298.808 -18.0576 c 0,28,29
 295.942 -18.0576 295.942 -18.0576 293.07 -17.9951 c 0,30,31
 242.962 -16.918 242.962 -16.918 195.608 1.91602 c 128,-1,32
 148.144 20.7939 148.144 20.7939 111.407 54.8291 c 0,33,34
 73.9854 89.499 73.9854 89.499 52.8193 144.857 c 0,35,36
 33.8135 194.562 33.8135 194.562 33.8135 252.737 c 0,37,38
 33.8135 258.438 33.8135 258.438 34.0059 264.28 c 2,39,-1
 31.9062 702.572 l 1,40,-1
 164.902 705.433 l 1,41,-1
 167 266.048 l 2,0,1
EndSplineSet
EndChar

StartChar: V
Encoding: 86 86 57
Width: 675
GlyphClass: 2
Flags: HW
LayerCount: 2
Fore
SplineSet
426.733 437.141 m 1,0,-1
 545.852 713 l 1
 683.72 713 l 1
 329.252 -88.1201 l 1
 280.532 31.3232 l 1,4,-1
 -8.19141 713 l 1
 129.194 713 l 1
 247.441 436.738 l 1,7,-1
 332.019 231.103 l 1,0,0
 426.733 437.141 l 1,0,-1
EndSplineSet
EndChar

StartChar: W
Encoding: 87 87 58
Width: 865
GlyphClass: 2
Flags: HW
LayerCount: 2
Fore
SplineSet
436.595 318.132 m 1,0,0
 267.9 -76.8359 l 1
 -0.946289 712 l 1
 129.298 712 l 1
 276.182 282.435 l 1,0,0
 399.605 567.85 l 1,5,-1
 434.24 650.108 l 1
 468.432 566.762 l 1,7,-1
 590.768 283.596 l 1,0,0
 736.729 713.165 l 1
 865.826 711.682 l 1
 597.711 -76.0449 l 1
 436.595 318.132 l 1,0,0
EndSplineSet
EndChar

StartChar: X
Encoding: 88 88 59
Width: 695
GlyphClass: 2
Flags: HW
LayerCount: 2
Fore
SplineSet
78.5117 104.315 m 1
 267.799 389.697 l 1
 149.657 558.471 l 1
 36.2422 718 l 1
 206.387 718 l 1
 302.487 581.319 l 1
 348.877 512.107 l 1
 402.368 593.107 l 1
 485.307 715.9 l 1
 639.434 717.354 l 1
 559.199 596 l 1
 560.084 596 l 1
 427.998 395.095 l 1
 628 96.0723 l 1
 628 94.8857 l 1
 702.911 -21.3555 l 1
 551.333 -19.8984 l 1
 488.529 72.6553 l 1
 347.489 274.396 l 1
 220.917 82.3389 l 1
 159.303 -20 l 1
 -9.71777 -20 l 1
 78.5117 104.315 l 1
EndSplineSet
EndChar

StartChar: Y
Encoding: 89 89 60
Width: 604
GlyphClass: 2
Flags: HW
LayerCount: 2
Fore
SplineSet
-21.2559 712 m 1
 132.726 712 l 1
 303.814 454.427 l 1
 471.143 712 l 1
 624.966 712 l 1
 374 328.043 l 1
 374 -16.4424 l 1
 227.559 -20.5869 l 1
 234.902 325.627 l 1
 -21.2559 712 l 1
EndSplineSet
EndChar

StartChar: Z
Encoding: 90 90 61
Width: 795
GlyphClass: 2
Flags: HW
LayerCount: 2
Fore
SplineSet
149 702 m 1
 718.34 702 l 1
 641.797 581.145 l 1,2,-1
 333.143 113 l 1,0,0
 695 113 l 1
 695 -17.9277 l 1
 80.543 -20.1426 l 1
 103.844 11.7891 l 1,6,7
 127.214 43.6138 l 130,-1,8
 150.584 75.4385 150.584 75.4385 169.27 103.958 c 2,9,-1
 478.999 577 l 1,0,0
 149 577 l 1
 149 702 l 1
EndSplineSet
EndChar

StartChar: bracketleft
Encoding: 91 91 62
Width: 348
GlyphClass: 2
Flags: HW
LayerCount: 2
Fore
SplineSet
42 -20 m 1
 42 724.43 l 1
 156.213 721.998 l 1,2,-1
 304.216 722 l 1
 302.786 589 l 1
 176 589 l 1,0,0
 176 112 l 1,0,0
 306.219 112 l 1
 304.784 -20 l 1
 42 -20 l 1
EndSplineSet
EndChar

StartChar: backslash
Encoding: 92 92 63
Width: 492
GlyphClass: 2
Flags: HW
LayerCount: 2
Fore
SplineSet
312.195 -20 m 1
 29.8018 724.588 l 1
 172.77 721.729 l 1
 462.275 -20 l 1
 312.195 -20 l 1
EndSplineSet
EndChar

StartChar: bracketright
Encoding: 93 93 64
Width: 344
GlyphClass: 2
Flags: HW
LayerCount: 2
Fore
SplineSet
304 -20 m 1
 41.2158 -20 l 1
 39.7812 112 l 1
 170 112 l 1,0,0
 170 589 l 1,0,0
 43.2139 589 l 1
 41.7842 722 l 1
 189.787 721.998 l 1,8,-1
 304 724.43 l 1
 304 -20 l 1
EndSplineSet
EndChar

StartChar: asciicircum
Encoding: 94 94 65
Width: 605
GlyphClass: 2
Flags: HW
LayerCount: 2
Fore
SplineSet
485.829 510 m 1,0,-1
 350.409 510 l 1,1,-1
 307.129 573.695 l 1,2,-1
 259.03 510.107 l 1,3,-1
 116.949 508.563 l 1,4,-1
 309.688 768.508 l 1,5,-1
 485.829 510 l 1,0,-1
EndSplineSet
EndChar

StartChar: underscore
Encoding: 95 95 66
Width: 559
GlyphClass: 2
Flags: HW
LayerCount: 2
Fore
SplineSet
531 20 m 1
 531 -102 l 1
 28 -102 l 1
 28 20 l 1
 531 20 l 1
EndSplineSet
EndChar

StartChar: grave
Encoding: 96 96 67
Width: 1000
GlyphClass: 2
Flags: HW
LayerCount: 2
Fore
SplineSet
460.149 1014.89 m 1,0,-1
 629.366 837.216 l 1,1,-1
 552.086 764.572 l 1,2,-1
 370.392 909.211 l 1,3,-1
 460.149 1014.89 l 1,0,-1
EndSplineSet
EndChar

StartChar: a
Encoding: 97 97 68
Width: 509
GlyphClass: 2
Flags: HW
LayerCount: 2
Fore
SplineSet
33.5752 315.779 m 0,0,1
 54.4395 365.195 54.4395 365.195 90.1025 395.286 c 0,2,3
 124.917 424.66 124.917 424.66 168.393 439.877 c 0,4,5
 205.54 452.879 205.54 452.879 244.679 452.879 c 0,6,7
 251.648 452.879 251.648 452.879 258.675 452.466 c 0,8,9
 304.044 449.797 304.044 449.797 345.162 431.258 c 2,10,-1
 350 428.977 l 1,11,-1
 350 447 l 1,12,-1
 483.047 447 l 1,13,-1
 481.953 -20 l 1,14,-1
 351 -20 l 1,15,-1
 351 -3.38184 l 1,16,17
 323.408 -16.4824 323.408 -16.4824 292.381 -22.6201 c 0,18,19
 268.906 -27.2627 268.906 -27.2627 245.731 -27.2627 c 0,20,21
 219.914 -27.2627 219.914 -27.2627 194.567 -21.5029 c 0,22,23
 147.005 -10.6934 147.005 -10.6934 106.958 15.8242 c 0,24,25
 65.6182 43.1982 65.6182 43.1982 39.7305 93.3223 c 0,26,27
 13.5488 144.014 13.5488 144.014 13.001 206.83 c 0,28,29
 12.4873 265.835 12.4873 265.835 33.5752 315.779 c 0,0,1
139 210 m 0,30,31
 139 170.866 139 170.866 157.092 142.677 c 128,-1,32
 175.184 114.487 175.184 114.487 202.693 104.484 c 128,-1,33
 230.203 94.4805 230.203 94.4805 259.742 94.4805 c 1,34,35
 259.439 94.4805 259.439 94.4805 260.589 94.4854 c 128,-1,36
 261.738 94.4912 261.738 94.4912 275.881 94.6963 c 128,-1,37
 290.023 94.9014 290.023 94.9014 313.75 113.31 c 128,-1,38
 337.476 131.718 337.476 131.718 345.684 162.186 c 0,39,40
 348.2 171.525 348.2 171.525 348.2 197.32 c 0,41,42
 348.2 204.153 348.2 204.153 347.577 229.397 c 128,-1,43
 346.953 254.641 346.953 254.641 345.379 261.948 c 0,44,45
 339.793 287.874 339.793 287.874 320.828 306.408 c 128,-1,46
 301.862 324.942 301.862 324.942 284.229 329.431 c 128,-1,47
 266.595 333.92 266.595 333.92 253.073 333.92 c 0,48,49
 242.328 333.92 242.328 333.92 224.225 330.545 c 128,-1,50
 206.121 327.17 206.121 327.17 185.917 312.438 c 128,-1,51
 165.714 297.705 165.714 297.705 152.357 270.992 c 128,-1,52
 139 244.278 139 244.278 139 210 c 0,30,31
EndSplineSet
EndChar

StartChar: b
Encoding: 98 98 69
Width: 511
GlyphClass: 2
Flags: HW
LayerCount: 2
Fore
SplineSet
467.27 93.3223 m 0
 441.382 43.1982 441.382 43.1982 400.042 15.8242 c 0
 359.995 -10.6934 359.995 -10.6934 312.433 -21.5029 c 0
 287.086 -27.2627 287.086 -27.2627 261.269 -27.2627 c 0
 238.094 -27.2627 238.094 -27.2627 214.619 -22.6201 c 0
 183.593 -16.4824 183.593 -16.4824 156 -3.38184 c 1
 156 -20 l 1
 25.0264 -20 l 1
 23.9736 768 l 1
 157 768 l 1
 157 424.712 l 1
 173.485 434.334 173.485 434.334 187.896 439.045 c 0
 221.297 449.961 221.297 449.961 256.697 450.498 c 0
 258.788 450.529 258.788 450.529 260.877 450.529 c 0
 294.354 450.529 294.354 450.529 326.423 442.385 c 0
 361.202 433.552 361.202 433.552 392.025 413.187 c 0
 422.712 392.912 422.712 392.912 445.205 364.383 c 0
 467.945 335.542 467.945 335.542 481.049 294.596 c 0
 494.444 252.732 494.444 252.732 493.999 206.83 c 0
 493.387 143.889 493.387 143.889 467.27 93.3223 c 0
359 211 m 0,21,22
 359 250.321 359 250.321 341.193 279.152 c 128,-1,23
 323.386 307.982 323.386 307.982 297.294 318.75 c 128,-1,24
 271.202 329.519 271.202 329.519 242.979 329.519 c 0,0,0
 241.892 329.519 241.892 329.519 228.031 329.312 c 128,-1,25
 214.17 329.104 214.17 329.104 190.96 310.454 c 128,-1,26
 167.751 291.804 167.751 291.804 160.57 260.996 c 0,27,28
 159.072 254.569 159.072 254.569 158.436 229.757 c 128,-1,29
 157.8 204.944 157.8 204.944 157.8 198.4 c 0,0,0
 157.8 174.405 157.8 174.405 160.269 165.356 c 0,30,31
 168.641 134.671 168.641 134.671 191.283 117.285 c 128,-1,32
 213.925 99.8984 213.925 99.8984 227.217 99.7002 c 129,-1,33
 240.509 99.502 240.509 99.502 241.619 99.4912 c 0
 242.73 99.4805 242.73 99.4805 243.177 99.4805 c 0,0,0
 271.579 99.4805 271.579 99.4805 297.705 109.433 c 128,-1,34
 323.831 119.385 323.831 119.385 341.416 146.181 c 128,-1,35
 359 172.977 359 172.977 359 211 c 0,21,22
EndSplineSet
EndChar

StartChar: c
Encoding: 99 99 70
Width: 421
GlyphClass: 2
Flags: HW
LayerCount: 2
Fore
SplineSet
382.598 421.546 m 2,0,-1
 401.575 411.328 l 1,1,-1
 402.64 408.882 l 1,2,-1
 405.278 406.787 l 1,3,-1
 419.69 395.578 l 1,4,-1
 343.73 277.08 l 1,5,-1
 326.615 301.531 l 2,6,7
 325.731 302.572 325.731 302.572 324.933 303.265 c 0,8,9
 319.311 308.135 319.311 308.135 306.072 313.431 c 0,10,11
 285.444 321.682 285.444 321.682 272.789 323.124 c 0,12,13
 267.197 323.762 267.197 323.762 259.508 323.762 c 0,14,15
 231.179 323.762 231.179 323.762 204.758 311.784 c 0,16,17
 174.129 297.899 174.129 297.899 157.569 267.446 c 0,18,19
 140.152 235.418 140.152 235.418 140.152 208.124 c 0,20,21
 140.152 196.854 140.152 196.854 142.903 185.851 c 0,22,23
 152.409 147.825 152.409 147.825 193 124.32 c 0,24,25
 216.004 111 216.004 111 243.949 109.975 c 0,26,27
 253.932 109.608 253.932 109.608 255.073 109.608 c 0,28,29
 288.088 109.608 288.088 109.608 316.953 124.821 c 0,30,31
 330.532 131.978 330.532 131.978 332.196 133.364 c 2,32,-1
 350.45 148.576 l 1,33,-1
 415.456 35.8984 l 1,34,-1
 403.308 25.0693 l 2,35,36
 352.715 -20.0234 352.715 -20.0234 253.496 -20.0234 c 0,37,38
 252.748 -20.0234 252.748 -20.0234 251.197 -20.0117 c 128,-1,39
 249.646 -20 249.646 -20 248.895 -19.999 c 0,40,41
 170.245 -19.9814 170.245 -19.9814 125.63 6.89941 c 0,42,43
 36.7393 60.4561 36.7393 60.4561 12.2383 148.116 c 0,44,45
 4.10938 177.199 4.10938 177.199 4.10938 206.653 c 0,46,47
 4.10938 266.615 4.10938 266.615 37.5186 326.716 c 0,48,49
 74.5215 393.282 74.5215 393.282 142.963 425.587 c 0,50,51
 197.531 451.343 197.531 451.343 256.773 451.343 c 0,52,53
 271.79 451.343 271.79 451.343 285.113 449.888 c 0,54,55
 342.949 443.573 342.949 443.573 382.598 421.546 c 2,0,-1
EndSplineSet
EndChar

StartChar: d
Encoding: 100 100 71
Width: 515
GlyphClass: 2
Flags: HW
LayerCount: 2
Fore
SplineSet
22.9414 212.971 m 0
 22.9414 264.14 22.9414 264.14 39.2822 307.547 c 0
 56.874 354.273 56.874 354.273 87.127 383.406 c 0
 116.367 411.563 116.367 411.563 154.657 430.438 c 0
 193.962 449.814 193.962 449.814 235.7 451.484 c 0
 242.717 451.765 242.717 451.765 249.72 451.765 c 0
 283.422 451.765 283.422 451.765 315.028 445.588 c 0
 335.942 441.5 335.942 441.5 359 433.456 c 1
 359 768 l 1
 492.026 768 l 1
 490.974 -20 l 1
 361.52 -20 l 1
 361.076 -3.15527 l 1
 357.841 -5.10449 357.841 -5.10449 354.908 -6.37012 c 0
 314.603 -23.7617 314.603 -23.7617 269.188 -26.4648 c 0
 261.82 -26.9033 261.82 -26.9033 254.529 -26.9033 c 0
 216.464 -26.9033 216.464 -26.9033 180.676 -14.9736 c 0
 138.478 -0.908203 138.478 -0.908203 103.306 26.1475 c 0
 66.8477 54.1924 66.8477 54.1924 45.2852 101.74 c 0
 24.083 148.493 24.083 148.493 23.0039 206.619 c 0
 22.9414 209.981 22.9414 209.981 22.9414 212.971 c 0
157 211 m 0,22,23
 157 173.095 157 173.095 175.029 146.261 c 128,-1,24
 193.058 119.428 193.058 119.428 219.239 109.454 c 128,-1,25
 245.421 99.4805 245.421 99.4805 273.823 99.4805 c 1,0,0
 273.529 99.4805 273.529 99.4805 274.639 99.4854 c 0
 275.747 99.4912 275.747 99.4912 289.411 99.6948 c 128,-1,26
 303.075 99.8984 303.075 99.8984 325.975 117.482 c 128,-1,27
 348.874 135.065 348.874 135.065 356.568 164.704 c 0,28,29
 358.571 172.42 358.571 172.42 358.571 202.367 c 0,0,0
 358.571 207.299 358.571 207.299 358.309 227.805 c 128,-1,30
 358.046 248.312 358.046 248.312 356.396 260.804 c 1,0,0
 347.041 292.774 347.041 292.774 324.435 310.94 c 128,-1,33
 301.828 329.106 301.828 329.106 288.228 329.312 c 128,-1,34
 274.628 329.519 274.628 329.519 273.557 329.519 c 0,0,0
 245.723 329.519 245.723 329.519 219.152 318.725 c 128,-1,35
 192.582 307.931 192.582 307.931 174.791 279.126 c 128,-1,36
 157 250.321 157 250.321 157 211 c 0,22,23
EndSplineSet
EndChar

StartChar: e
Encoding: 101 101 72
Width: 500
GlyphClass: 2
Flags: HW
LayerCount: 2
Fore
SplineSet
378.549 1.91992 m 0,0,1
 344.819 -13.8789 344.819 -13.8789 300.15 -18.8838 c 0,2,3
 281.26 -21 281.26 -21 258 -21 c 0,4,5
 226.488 -21 226.488 -21 203.429 -16.6768 c 0,6,7
 143.123 -5.37012 143.123 -5.37012 98.8066 30.6372 c 128,-1,8
 54.4902 66.6445 54.4902 66.6445 34.9883 113.232 c 128,-1,9
 15.4863 159.82 15.4863 159.82 15.4863 211.355 c 0,10,11
 15.4863 212.777 15.4863 212.777 15.7642 239.976 c 128,-1,12
 16.042 267.174 16.042 267.174 36.2715 314.741 c 128,-1,13
 56.501 362.308 56.501 362.308 101.125 399.219 c 128,-1,14
 145.748 436.13 145.748 436.13 204.183 447.632 c 0,15,16
 231.457 453 231.457 453 264 453 c 0,17,18
 295.054 453 295.054 453 317.675 448.658 c 0,19,20
 383.763 435.973 383.763 435.973 424.649 391.166 c 128,-1,21
 465.535 346.359 465.535 346.359 473.768 304.785 c 128,-1,22
 482 263.211 482 263.211 482 234.625 c 128,-1,23
 482 206.229 482 206.229 476.688 176.484 c 2,24,-1
 473.754 160.052 l 1,25,-1
 161.258 159.09 l 1,26,27
 170.441 141.854 170.441 141.854 188.507 127.909 c 128,-1,28
 206.573 113.963 206.573 113.963 264.461 107.83 c 0,29,30
 273.648 106.857 273.648 106.857 276.857 106.857 c 0,31,32
 281.892 106.857 281.892 106.857 291.212 107.759 c 128,-1,33
 300.533 108.661 300.533 108.661 323.396 117.015 c 128,-1,34
 346.258 125.368 346.258 125.368 362.052 140.331 c 2,35,-1
 362.857 141.143 l 1,36,-1
 373.899 152.184 l 1,37,-1
 472 93.3242 l 1,38,-1
 472 74.1377 l 1,39,-1
 467.787 68.7207 l 2,40,41
 437.195 29.3887 437.195 29.3887 378.549 1.91992 c 0,0,1
349.865 271.903 m 1,42,43
 335.68 336 335.68 336 263 336 c 0,44,45
 214.932 336 214.932 336 191.332 313.788 c 128,-1,46
 167.731 291.576 167.731 291.576 159.581 271.107 c 1,47,-1
 349.865 271.903 l 1,42,43
EndSplineSet
EndChar

StartChar: f
Encoding: 102 102 73
Width: 359
GlyphClass: 2
Flags: HW
LayerCount: 2
Fore
SplineSet
61 326 m 1,0,0
 11 326 l 1
 11 442 l 1
 65.4014 442 l 1,0,0
 67.5283 493.882 67.5283 493.882 82.5459 539.435 c 128,-1,6
 97.5635 584.988 97.5635 584.988 125.225 611.521 c 128,-1,7
 152.887 638.053 152.887 638.053 181.965 650.026 c 128,-1,8
 211.043 662 211.043 662 241 662 c 0,9,10
 260.646 662 260.646 662 275.586 657.978 c 128,-1,11
 290.527 653.955 290.527 653.955 303.443 648.49 c 128,-1,12
 316.359 643.025 316.359 643.025 322.851 641.403 c 2,13,-1
 349.845 634.654 l 1
 276.918 520.708 l 1
 248.271 535.874 l 1,0,0
 223.586 534.511 223.586 534.511 212.403 515.435 c 128,-1,17
 201.221 496.359 201.221 496.359 199.332 442 c 1,0,0
 302 442 l 1
 302 324 l 1
 196.059 324 l 1,0,0
 197.059 -20 l 1
 61 -20 l 1
 61 326 l 1,0,0
EndSplineSet
EndChar

StartChar: g
Encoding: 103 103 74
Width: 476
GlyphClass: 2
Flags: HW
LayerCount: 2
Fore
SplineSet
138 224 m 0,0,1
 138 191.097 138 191.097 155.165 165.559 c 128,-1,2
 172.33 140.021 172.33 140.021 197.739 129.01 c 128,-1,3
 223.147 118 223.147 118 248.975 118 c 128,-1,4
 274.802 118 274.802 118 295.107 134.791 c 128,-1,5
 315.413 151.582 315.413 151.582 323.011 181.46 c 1,6,7
 323.104 192.035 323.104 192.035 323.802 209.839 c 128,-1,8
 324.5 227.643 324.5 227.643 324.5 236.625 c 0,9,10
 324.5 242.559 324.5 242.559 324.126 249.195 c 0,11,12
 324.037 250.788 324.037 250.788 324.034 251.17 c 0,13,14
 323.878 278.737 323.878 278.737 311.126 296.513 c 128,-1,15
 298.374 314.289 298.374 314.289 280.659 320.667 c 128,-1,16
 262.944 327.044 262.944 327.044 244.113 327.044 c 0,17,18
 238.759 327.044 238.759 327.044 223.299 325.733 c 128,-1,19
 207.839 324.423 207.839 324.423 187.059 313.202 c 128,-1,20
 166.279 301.98 166.279 301.98 152.14 278.692 c 128,-1,21
 138 255.404 138 255.404 138 224 c 0,0,1
367.559 -180.319 m 0,22,23
 316.449 -216.813 316.449 -216.813 242.454 -218.495 c 0,24,25
 238.871 -218.576 238.871 -218.576 235.324 -218.576 c 0,26,27
 168.738 -218.576 168.738 -218.576 114.547 -189.625 c 2,28,-1
 78.0469 -170.125 l 2,29,30
 69.4043 -165.472 69.4043 -165.472 57.6211 -154.866 c 2,31,-1
 46.2344 -144.618 l 1,32,-1
 98.2803 -41.9727 l 1,33,-1
 174.066 -81.1738 l 2,34,35
 194.364 -91.3223 194.364 -91.3223 219.376 -93.0479 c 0,36,37
 224.488 -93.4004 224.488 -93.4004 229.5 -93.4004 c 0,38,39
 249.347 -93.4004 249.347 -93.4004 267.72 -87.8535 c 0,40,41
 289.892 -81.1602 289.892 -81.1602 308.547 -64.2012 c 0,42,43
 325.201 -49.0605 325.201 -49.0605 331.904 -27.4658 c 1,44,-1
 331.007 -0.164062 l 1,45,-1
 331.304 18.0879 l 1,46,47
 318.564 11.0146 318.564 11.0146 303.912 6.05566 c 0,48,49
 271.001 -5.08301 271.001 -5.08301 235.816 -5.08301 c 0,50,51
 232.631 -5.08301 232.631 -5.08301 229.429 -4.99219 c 0,52,53
 190.874 -3.89062 190.874 -3.89062 152.572 11.4307 c 0,54,55
 114.597 26.6201 114.597 26.6201 84.1426 52.1807 c 0,56,57
 52.6689 78.5957 52.6689 78.5957 33.293 121.224 c 0,58,59
 13.5156 164.732 13.5156 164.732 13.002 213.782 c 0,60,61
 12.4502 266.479 12.4502 266.479 31.4307 313.928 c 0,62,63
 50.1631 360.76 50.1631 360.76 83.1348 390.379 c 0,64,65
 115.204 419.187 115.204 419.187 154.897 435.499 c 0,66,67
 192.77 451.062 192.77 451.062 234.453 451.062 c 0,68,69
 237.215 451.062 237.215 451.062 239.993 450.994 c 0,70,71
 283.788 449.912 283.788 449.912 325.162 431.258 c 2,72,-1
 328.932 429.499 l 1,73,-1
 328.494 447 l 1,74,-1
 463.096 447 l 1,75,-1
 461 5.95215 l 2,76,77
 460.43 -114.006 460.43 -114.006 367.559 -180.319 c 0,22,23
EndSplineSet
EndChar

StartChar: h
Encoding: 104 104 75
Width: 487
GlyphClass: 2
Flags: HW
LayerCount: 2
Fore
SplineSet
457 229 m 2
 457 71.5 l 2
 457 61.7217 457 61.7217 456.492 43.4443 c 0
 456 25.7236 456 25.7236 456 -1 c 2
 456 -21 l 1
 322 -21 l 1
 322 -1 l 2
 322 31.1562 322 31.1562 322.502 63.3125 c 0
 323 95.1562 323 95.1562 323 131.5 c 2
 323 235 l 2
 323 268.732 323 268.732 310.595 290.648 c 0
 298.746 311.581 298.746 311.581 282.042 319.376 c 0
 267.163 326.32 267.163 326.32 249.878 326.32 c 0
 246.493 326.32 246.493 326.32 243.005 326.057 c 0
 221.229 324.413 221.229 324.413 202.79 313.351 c 0
 184.577 302.423 184.577 302.423 172.149 281.71 c 0
 160 261.46 160 261.46 160 235 c 2
 160 -21 l 1
 30.0273 -21 l 1
 28.9746 760.75 l 1
 162 769.332 l 1
 162 425.615 l 1
 177.057 435.07 177.057 435.07 191.809 440.015 c 0
 227.569 452 227.569 452 264 452 c 0
 361.82 452 361.82 452 410.326 389.229 c 0
 457 328.827 457 328.827 457 229 c 2
EndSplineSet
EndChar

StartChar: i
Encoding: 105 105 76
Width: 207
GlyphClass: 2
Flags: HW
LayerCount: 2
Fore
SplineSet
53.8188 596.147 m 128,-1,2
 76.6377 614.817 76.6377 614.817 90.3018 615.168 c 128,-1,3
 103.966 615.519 103.966 615.519 104.94 615.519 c 0,0,0
 130.543 615.519 130.543 615.519 153.271 597.611 c 128,-1,4
 176 579.704 176 579.704 176 546 c 0,5,6
 176 511.95 176 511.95 153.27 491.975 c 128,-1,7
 130.539 472 130.539 472 103.599 472 c 128,-1,8
 76.6582 472 76.6582 472 53.8291 491.37 c 128,-1,9
 31 510.74 31 510.74 31 545 c 0,0,1
 31 577.478 31 577.478 53.8188 596.147 c 128,-1,2
38.9082 453 m 1
 171 453 l 1
 171 -22 l 1
 41.0918 -22 l 1
 38.9082 453 l 1
EndSplineSet
EndChar

StartChar: j
Encoding: 106 106 77
Width: 207
GlyphClass: 2
Flags: HW
LayerCount: 2
Fore
SplineSet
53.8188 596.147 m 128,-1,2
 76.6377 614.817 76.6377 614.817 90.3018 615.168 c 128,-1,3
 103.966 615.519 103.966 615.519 104.94 615.519 c 0,0,0
 130.543 615.519 130.543 615.519 153.271 597.611 c 128,-1,4
 176 579.704 176 579.704 176 546 c 0,5,6
 176 511.95 176 511.95 153.27 491.975 c 128,-1,7
 130.539 472 130.539 472 103.599 472 c 128,-1,8
 76.6582 472 76.6582 472 53.8291 491.37 c 128,-1,9
 31 510.74 31 510.74 31 545 c 0,0,1
 31 577.478 31 577.478 53.8188 596.147 c 128,-1,2
39 450 m 1
 171.038 450 l 1
 169.963 -122 l 1
 39 -122 l 1
 39 450 l 1
EndSplineSet
EndChar

StartChar: k
Encoding: 107 107 78
Width: 490
GlyphClass: 2
Flags: HW
LayerCount: 2
Fore
SplineSet
162.095 286.379 m 1,0,0
 320.786 445.07 l 1
 494.709 443.597 l 1
 279.217 227.005 l 1,0,0
 524.732 -19.5967 l 1
 350.786 -21.0703 l 1
 162 167.716 l 1,0,0
 162 -20 l 1
 28.9736 -20 l 1
 30.0264 768 l 1
 163.039 768 l 1
 162.095 286.379 l 1,0,0
EndSplineSet
EndChar

StartChar: l
Encoding: 108 108 79
Width: 210
GlyphClass: 2
Flags: HW
LayerCount: 2
Fore
SplineSet
171 237.981 m 1,0,-1
 171 -20 l 1
 38 -20 l 1
 38 802 l 1
 172.037 802 l 1
 171 237.981 l 1,0,-1
EndSplineSet
EndChar

StartChar: m
Encoding: 109 109 80
Width: 746
GlyphClass: 2
Flags: HW
LayerCount: 2
Fore
SplineSet
320.361 442.096 m 0
 346.306 431.826 346.306 431.826 371.8 408.424 c 0
 373.507 406.857 373.507 406.857 376.694 405.264 c 0
 378.438 404.392 378.438 404.392 379.686 404.157 c 0
 380.451 404.014 380.451 404.014 381.611 403.725 c 0
 382.771 403.436 382.771 403.436 383.149 403.403 c 1
 383.315 403.444 383.315 403.444 389.636 408.102 c 0
 394.396 411.607 394.396 411.607 401.153 415.904 c 0
 403.521 417.41 403.521 417.41 404.481 418.058 c 0
 427.135 433.341 427.135 433.341 457.522 442.947 c 0
 480.081 450.079 480.081 450.079 488.001 450.475 c 0
 491.833 450.667 491.833 450.667 496 450.667 c 0
 498.741 450.667 498.741 450.667 504.194 450.329 c 0
 509.647 449.992 509.647 449.992 512.767 449.971 c 0
 609.421 449.312 609.421 449.312 658.399 385.134 c 0
 706 322.76 706 322.76 706 223 c 2
 706 69.5 l 2
 706 60.6895 706 60.6895 705.49 44.375 c 0
 705 28.6865 705 28.6865 705 1 c 2
 705 -18.791 l 1
 570 -20.2119 l 1
 570 60.5 l 2
 570 89.1475 570 89.1475 570.502 123.294 c 0
 571 157.15 571 157.15 571 225 c 0
 571 258.355 571 258.355 559.547 281.687 c 0
 548.562 304.064 548.562 304.064 533.4 313.54 c 0
 518.264 323 518.264 323 500.5 323 c 0
 482.34 323 482.34 323 466.97 314.162 c 0
 451.897 305.495 451.897 305.495 441.098 285.497 c 0
 430 264.945 430 264.945 430 236 c 0
 430 229.961 430 229.961 429 -0.0869141 c 2
 428.913 -20 l 1
 302 -20 l 1
 302 64 l 2
 302 95.1426 302 95.1426 302.502 130.781 c 0
 303 166.141 303 166.141 303 233 c 0
 303 267.202 303 267.202 291.177 290.427 c 0
 279.928 312.523 279.928 312.523 264.715 321.057 c 0
 249.628 329.521 249.628 329.521 231.994 329.521 c 0
 231.21 329.521 231.21 329.521 230.417 329.504 c 0
 211.42 329.108 211.42 329.108 195.285 320.057 c 0
 179.616 311.268 179.616 311.268 168.365 291.577 c 0
 157 271.688 157 271.688 157 245 c 2
 157 -20 l 1
 27.0469 -20 l 1
 25.9531 449 l 1
 159 449 l 1
 159 430.995 l 1
 171.263 437.459 171.263 437.459 195.253 444.656 c 0
 223.064 453 223.064 453 254 453 c 0
 292.814 453 292.814 453 320.361 442.096 c 0
EndSplineSet
EndChar

StartChar: n
Encoding: 110 110 81
Width: 426
GlyphClass: 2
Flags: HW
LayerCount: 2
Fore
SplineSet
424 229.956 m 2
 422.913 -20 l 1
 289 -20 l 1
 289 65.5 l 2
 289 98.1533 289 98.1533 289.502 135.271 c 0
 290 172.134 290 172.134 290 239 c 0
 290 273.123 290 273.123 278.245 295.794 c 0
 267.093 317.302 267.093 317.302 252.044 325.377 c 0
 238.434 332.68 238.434 332.68 222.71 332.68 c 0
 219.687 332.629 219.687 332.629 218.247 332.539 c 0
 199.074 331.341 199.074 331.341 182.229 321.314 c 0
 165.975 311.639 165.975 311.639 155.098 291.497 c 0
 144 270.944 144 270.944 144 244.082 c 2
 146.165 -20 l 1
 16.0469 -20 l 1
 14.9531 449 l 1
 148 449 l 1
 148 429.304 l 1
 165.16 437.938 l 2
 187.519 449 187.519 449 248 449 c 0
 344.59 449 344.59 449 385.541 388.742 c 0
 424 332.153 424 332.153 424 229.956 c 2
EndSplineSet
EndChar

StartChar: o
Encoding: 111 111 82
Width: 499
GlyphClass: 2
Flags: HW
LayerCount: 2
Fore
SplineSet
248 342 m 0,0,1
 210.977 342 210.977 342 183.817 324.176 c 128,-1,2
 156.657 306.353 156.657 306.353 144.297 280.354 c 128,-1,3
 131.938 254.356 131.938 254.356 131.71 237.987 c 128,-1,4
 131.482 221.618 131.482 221.618 131.482 220.523 c 0,5,6
 131.482 190.237 131.482 190.237 143.15 164.403 c 128,-1,7
 154.817 138.568 154.817 138.568 181.376 121.284 c 128,-1,8
 207.935 104 207.935 104 245 104 c 0,9,10
 302.286 104 302.286 104 335.147 140.394 c 0,11,12
 357.234 164.855 357.234 164.855 361.441 189.198 c 128,-1,13
 365.648 213.54 365.648 213.54 365.648 226.576 c 0,14,15
 365.648 247.734 365.648 247.734 357.749 272.808 c 128,-1,16
 349.849 297.882 349.849 297.882 320.578 319.941 c 128,-1,17
 291.308 342 291.308 342 248 342 c 0,0,1
383.577 418.975 m 128,-1,19
 440.493 383.949 440.493 383.949 465.502 331.757 c 128,-1,20
 490.511 279.565 490.511 279.565 490.511 219.9 c 0,21,22
 490.511 218.611 490.511 218.611 490.235 187.425 c 128,-1,23
 489.959 156.238 489.959 156.238 463.647 103.067 c 128,-1,24
 437.336 49.8965 437.336 49.8965 379.453 14.9482 c 128,-1,25
 321.569 -20 321.569 -20 245 -20 c 0,26,27
 167.431 -20 167.431 -20 109.47 14.9951 c 128,-1,28
 51.5088 49.9902 51.5088 49.9902 26.7334 102.234 c 128,-1,29
 1.95801 154.478 1.95801 154.478 1.95801 212.806 c 0,30,31
 1.95801 215.323 1.95801 215.323 2.52148 247.149 c 128,-1,32
 3.08496 278.976 3.08496 278.976 29.9321 331.574 c 128,-1,33
 56.7793 384.173 56.7793 384.173 114.605 419.086 c 128,-1,34
 172.431 454 172.431 454 249 454 c 0,35,18
 326.661 454 326.661 454 383.577 418.975 c 128,-1,19
EndSplineSet
EndChar

StartChar: p
Encoding: 112 112 83
Width: 507
GlyphClass: 2
Flags: HW
LayerCount: 2
Fore
SplineSet
461.85 93.4775 m 0
 436.43 43.1904 436.43 43.1904 394.439 15.7568 c 0
 353.934 -10.707 353.934 -10.707 306.433 -21.5029 c 0
 281.086 -27.2627 281.086 -27.2627 255.269 -27.2627 c 0
 232.094 -27.2627 232.094 -27.2627 208.619 -22.6201 c 0
 177.859 -16.5352 177.859 -16.5352 150.851 -3.59961 c 1
 149.914 -221 l 1
 20.0322 -221 l 1
 18.9678 447 l 1
 152 447 l 1
 152 429.638 l 1
 179.109 442.553 179.109 442.553 210.16 448.628 c 0
 232.762 453.05 232.762 453.05 255.097 453.05 c 0
 282.46 453.05 282.46 453.05 309.3 446.416 c 0
 357.372 434.532 357.372 434.532 397.896 406.436 c 0
 439.822 377.366 439.822 377.366 464.609 324.488 c 0
 488.043 274.498 488.043 274.498 488.043 212.168 c 0
 488.026 208.367 488.026 208.367 487.997 206.667 c 0
 486.921 143.075 486.921 143.075 461.85 93.4775 c 0
354 211 m 0,17,18
 354 250.321 354 250.321 336.209 279.126 c 128,-1,19
 318.418 307.931 318.418 307.931 291.848 318.725 c 128,-1,20
 265.277 329.519 265.277 329.519 237.443 329.519 c 0,0,0
 236.372 329.519 236.372 329.519 222.772 329.312 c 128,-1,21
 209.172 329.106 209.172 329.106 186.565 310.94 c 128,-1,22
 163.959 292.773 163.959 292.773 154.603 260.801 c 1,0,0
 152.954 248.308 152.954 248.308 152.691 227.804 c 128,-1,25
 152.429 207.301 152.429 207.301 152.429 202.367 c 0,0,0
 152.429 172.42 152.429 172.42 154.432 164.704 c 0,26,27
 162.126 135.065 162.126 135.065 185.025 117.482 c 128,-1,28
 207.925 99.8984 207.925 99.8984 221.217 99.7002 c 129,-1,29
 234.509 99.502 234.509 99.502 235.619 99.4912 c 0
 236.73 99.4805 236.73 99.4805 237.177 99.4805 c 0,0,0
 265.579 99.4805 265.579 99.4805 291.761 109.454 c 128,-1,30
 317.942 119.428 317.942 119.428 335.971 146.261 c 128,-1,31
 354 173.095 354 173.095 354 211 c 0,17,18
EndSplineSet
EndChar

StartChar: q
Encoding: 113 113 84
Width: 497
GlyphClass: 2
Flags: HW
LayerCount: 2
Fore
SplineSet
13.9258 213.628 m 0
 13.9258 258.02 13.9258 258.02 26.502 296.25 c 0
 40.1514 337.744 40.1514 337.744 63.9688 367.101 c 0
 87.5107 396.118 87.5107 396.118 119.244 416.361 c 0
 151.147 436.714 151.147 436.714 187.003 444.988 c 0
 217.898 452.117 217.898 452.117 249.632 452.117 c 0
 253.856 452.117 253.856 452.117 258.097 451.991 c 0
 292.121 450.976 292.121 450.976 328.772 437.812 c 0
 340.468 433.612 340.468 433.612 350 428.692 c 1
 350 447 l 1
 483.032 447 l 1
 481.968 -221 l 1
 352.086 -221 l 1
 351.149 -3.59961 l 1
 324.142 -16.5352 324.142 -16.5352 293.381 -22.6201 c 0
 269.906 -27.2627 269.906 -27.2627 246.731 -27.2627 c 0
 220.914 -27.2627 220.914 -27.2627 195.567 -21.5029 c 0
 148.066 -10.707 148.066 -10.707 107.561 15.7568 c 0
 65.5703 43.1904 65.5703 43.1904 40.1504 93.4775 c 0
 15.0986 143.038 15.0986 143.038 14.0039 206.608 c 0
 13.9258 211.138 13.9258 211.138 13.9258 213.628 c 0
148 211 m 0,20,21
 148 173.095 148 173.095 166.029 146.261 c 128,-1,22
 184.058 119.428 184.058 119.428 210.239 109.454 c 128,-1,23
 236.421 99.4805 236.421 99.4805 264.823 99.4805 c 1,0,0
 264.529 99.4805 264.529 99.4805 265.639 99.4854 c 0
 266.747 99.4912 266.747 99.4912 280.411 99.6948 c 128,-1,24
 294.075 99.8984 294.075 99.8984 316.975 117.482 c 128,-1,25
 339.874 135.065 339.874 135.065 347.568 164.704 c 0,26,27
 349.571 172.42 349.571 172.42 349.571 202.367 c 0,0,0
 349.571 207.299 349.571 207.299 349.309 227.805 c 128,-1,28
 349.046 248.312 349.046 248.312 347.396 260.804 c 1,0,0
 338.041 292.774 338.041 292.774 315.435 310.94 c 128,-1,31
 292.828 329.106 292.828 329.106 279.228 329.312 c 128,-1,32
 265.628 329.519 265.628 329.519 264.557 329.519 c 0,0,0
 236.723 329.519 236.723 329.519 210.152 318.725 c 128,-1,33
 183.582 307.931 183.582 307.931 165.791 279.126 c 128,-1,34
 148 250.321 148 250.321 148 211 c 0,20,21
EndSplineSet
EndChar

StartChar: r
Encoding: 114 114 85
Width: 343
GlyphClass: 2
Flags: HW
LayerCount: 2
Fore
SplineSet
326.422 445.141 m 2
 344.186 436.893 l 1
 293.706 321.911 l 1
 277.661 325.477 l 2
 267.805 327.667 267.805 327.667 256.914 327.667 c 0
 242.833 327.667 242.833 327.667 226.997 324.012 c 0
 199.729 317.72 199.729 317.72 183.666 300.405 c 0
 168.438 283.989 168.438 283.989 155.276 254.377 c 0
 143.113 227.01 143.113 227.01 143 203.951 c 2
 141.902 -20 l 1
 12.0469 -20 l 1
 10.9531 449 l 1
 144.234 449 l 1
 143.877 418.291 l 1
 170.024 441.469 170.024 441.469 199.594 450.608 c 0
 229.979 460 229.979 460 261 460 c 0
 294.416 460 294.416 460 326.422 445.141 c 2
EndSplineSet
EndChar

StartChar: s
Encoding: 115 115 86
Width: 416
GlyphClass: 2
Flags: HW
LayerCount: 2
Fore
SplineSet
20.0947 78.6973 m 1
 115.596 162.963 l 1
 128.688 146.404 l 2
 157.508 109.957 157.508 109.957 208.5 103.843 c 0
 216.39 102.896 216.39 102.896 221.867 102.896 c 0
 237.552 102.896 237.552 102.896 248.056 108.389 c 0
 259.312 114.274 259.312 114.274 263.422 120.438 c 0
 264.781 122.477 264.781 122.477 265.273 124.022 c 0
 266.013 126.344 266.013 126.344 266.131 127.615 c 2
 266.182 128.702 l 2
 266.14 131.574 266.14 131.574 264.818 134.669 c 0
 263.977 136.642 263.977 136.642 262.627 138.763 c 0
 256.104 149.014 256.104 149.014 236.379 154.807 c 0
 149.431 180.342 149.431 180.342 141.791 183.354 c 0
 97.4873 200.821 97.4873 200.821 76.8447 239.604 c 0
 58 275.009 58 275.009 58 314 c 0
 58 335.481 58 335.481 66.1758 358.257 c 0
 74.3447 381.013 74.3447 381.013 92.5381 403.187 c 0
 111.924 426.812 111.924 426.812 149.915 441.203 c 0
 186.339 455 186.339 455 234 455 c 0
 326.43 455 326.43 455 372.315 407.967 c 2
 384.399 395.581 l 1
 309.877 298.245 l 1
 293.814 316.984 l 2
 274.815 339.15 274.815 339.15 245.141 343.206 c 0
 240.147 343.889 240.147 343.889 235.95 343.889 c 0
 229.714 343.889 229.714 343.889 222.685 342.755 c 0
 212.111 341.05 212.111 341.05 201.588 333.066 c 0
 195 328.068 195 328.068 195 318 c 0
 195 296.916 195 296.916 226.979 286.41 c 2
 273.891 277.427 l 1
 274.986 277.083 l 2
 331.206 259.445 331.206 259.445 361.866 225.379 c 0
 393.649 190.064 393.649 190.064 395.479 150.422 c 0
 395.68 146.062 395.68 146.062 395.68 141.75 c 0
 395.68 109.854 395.68 109.854 384.7 80.9072 c 0
 372.145 47.8066 372.145 47.8066 347.822 24.5449 c 0
 318.976 -3.04395 318.976 -3.04395 282.135 -12.8301 c 0
 247.878 -21.9287 247.878 -21.9287 202.526 -22.9932 c 0
 200.332 -23.0449 200.332 -23.0449 198.941 -23.0449 c 0
 161.73 -23.0449 161.73 -23.0449 107.921 -1.00781 c 0
 48.5898 23.2891 48.5898 23.2891 27.2139 64.8535 c 2
 20.0947 78.6973 l 1
EndSplineSet
EndChar

StartChar: t
Encoding: 116 116 87
Width: 243
GlyphClass: 2
Flags: HW
LayerCount: 2
Fore
SplineSet
187 442 m 1,0,0
 235 442 l 1
 235 318 l 1
 186 318 l 1,0,0
 186 -22 l 1
 51 -22 l 1
 51 320 l 1,0,0
 8 320 l 1
 8 442 l 1
 54 442 l 1,0,0
 54 534 l 1
 187 534 l 1
 187 442 l 1,0,0
EndSplineSet
EndChar

StartChar: u
Encoding: 117 117 88
Width: 472
GlyphClass: 2
Flags: HW
LayerCount: 2
Fore
SplineSet
21.502 308.257 m 0,0,1
 22 347.128 22 347.128 22 356.5 c 2,2,-1
 22 449 l 1,3,-1
 156 449 l 1,4,-1
 156 190 l 2,5,6
 156 156.146 156 156.146 167.017 136.152 c 0,7,8
 176.903 118.21 176.903 118.21 190.372 113.282 c 0,9,10
 198.87 110.173 198.87 110.173 208.152 110.173 c 0,11,12
 215.248 110.173 215.248 110.173 222.942 111.974 c 0,13,14
 242.161 116.472 242.161 116.472 259.194 129.767 c 128,-1,15
 276.254 143.081 276.254 143.081 288.245 166.206 c 0,16,17
 300 188.877 300 188.877 300 215.953 c 2,18,-1
 298.906 449 l 1,19,-1
 429.953 449 l 1,20,-1
 431.047 -20 l 1,21,-1
 298.615 -20 l 1,22,-1
 297.44 17.5938 l 1,23,24
 283.507 3.39258 283.507 3.39258 272.944 -1.88867 c 0,25,26
 236.722 -20 236.722 -20 198 -20 c 0,27,28
 100.411 -20 100.411 -20 59.458 40.2578 c 0,29,30
 21 96.8467 21 96.8467 21 199 c 0,31,32
 21 269.128 21 269.128 21.502 308.257 c 0,0,1
EndSplineSet
EndChar

StartChar: v
Encoding: 118 118 89
Width: 467
GlyphClass: 2
Flags: HW
LayerCount: 2
Fore
SplineSet
468.679 448.664 m 1
 229.681 -86.7852 l 1
 -0.263672 446.686 l 1
 139.171 448.139 l 1
 231.836 230.155 l 1,0,0
 334.319 450.141 l 1
 468.679 448.664 l 1
EndSplineSet
EndChar

StartChar: w
Encoding: 119 119 90
Width: 585
GlyphClass: 2
Flags: HW
LayerCount: 2
Fore
SplineSet
392.938 227.101 m 1,0,0
 474.047 450.152 l 1
 608.483 448.691 l 1
 415.084 -80.8545 l 1
 310.327 123.474 l 1,0,0
 198.409 -78.8008 l 1
 3.35352 446.703 l 1
 141.87 448.146 l 1
 225.343 222.593 l 1,0,0
 312.452 385.196 l 1
 392.938 227.101 l 1,0,0
EndSplineSet
EndChar

StartChar: x
Encoding: 120 120 91
Width: 492
GlyphClass: 2
Flags: HW
LayerCount: 2
Fore
SplineSet
82.5791 104.415 m 1
 170.848 234.062 l 1
 110.579 323.586 l 1
 22.2686 446.678 l 1
 192.246 448.095 l 1
 250.317 351.645 l 1
 314.27 448 l 1
 468.37 448 l 1
 367.676 296.959 l 1
 326.954 235.027 l 1
 496.434 -21.3545 l 1
 342.307 -19.9004 l 1
 249.241 117.895 l 1
 225.93 82.3584 l 1
 164.303 -20 l 1
 -5.71777 -20 l 1
 82.5791 104.415 l 1
EndSplineSet
EndChar

StartChar: y
Encoding: 121 121 92
Width: 462
GlyphClass: 2
Flags: HW
LayerCount: 2
Fore
SplineSet
160.694 75.5176 m 1,0,0
 -12.2314 446.676 l 1
 127.548 448.132 l 1
 233.656 226.022 l 1,0,0
 348.862 450.135 l 1
 483.802 448.651 l 1
 158.512 -220 l 1
 5.95117 -220 l 1
 160.694 75.5176 l 1,0,0
EndSplineSet
EndChar

StartChar: z
Encoding: 122 122 93
Width: 446
GlyphClass: 2
Flags: HW
LayerCount: 2
Fore
SplineSet
38 325.903 m 1
 38 444 l 1
 448.37 444 l 1
 373.69 331.981 l 1,3,-1
 225.968 106 l 1,0,0
 437 106 l 1
 437 -20 l 1
 -8.78906 -20 l 1
 227.086 326.816 l 1,0,0
 38 325.903 l 1
EndSplineSet
EndChar

StartChar: braceleft
Encoding: 123 123 94
Width: 268
GlyphClass: 2
Flags: HW
LayerCount: 2
Fore
SplineSet
240.266 -8.20312 m 2
 248 -14.208 l 1
 248 -167.991 l 1
 219.24 -153.979 l 2
 136.594 -113.716 136.594 -113.716 83.126 -37.4844 c 0
 29.4355 39.0645 29.4355 39.0645 20.0391 146.112 c 0
 19.9287 147.375 19.9287 147.375 20.5342 157.675 c 0
 21.0254 166.022 21.0254 166.022 21.5186 177.369 c 0
 21.667 180.768 21.667 180.768 21.667 184.667 c 0
 21.667 192.709 21.667 192.709 21.0391 202.752 c 0
 20.1035 217.727 20.1035 217.727 17.7725 231.712 c 0
 15.5137 245.261 15.5137 245.261 10.9658 259.36 c 0
 6.85156 272.115 6.85156 272.115 0.975586 280.733 c 0
 -4.16016 288.265 -4.16016 288.265 -12.5996 293.54 c 0
 -19.7363 298 -19.7363 298 -30 298 c 1
 -30 338 l 1
 -11.4287 338 -11.4287 338 -0.730469 356.154 c 0
 13.4814 380.271 13.4814 380.271 16.0801 409.284 c 0
 18.958 441.425 18.958 441.425 19 471.5 c 0
 19.0391 499.792 19.0391 499.792 20.1104 505.238 c 0
 27.9668 608.868 27.9668 608.868 81.876 682.332 c 0
 136.057 756.168 136.057 756.168 220.983 793.323 c 2
 249 805.58 l 1
 249 661.679 l 1
 240.588 655.699 l 2
 164.637 601.709 164.637 601.709 153.985 503.741 c 0
 153.801 502.04 153.801 502.04 153.736 498.004 c 0
 153.672 493.968 153.672 493.968 153.63 486.501 c 0
 153.587 479.034 153.587 479.034 153.497 473.667 c 0
 152.985 442.94 152.985 442.94 149.92 408.716 c 0
 146.525 370.809 146.525 370.809 127.809 338.479 c 0
 122.009 328.462 122.009 328.462 114.718 320.988 c 1
 123.232 313.512 123.232 313.512 129.084 303.899 c 0
 137.21 290.55 137.21 290.55 143.414 272.502 c 0
 149.575 254.577 149.575 254.577 151.836 237.06 c 0
 153.922 220.887 153.922 220.887 154.963 203.71 c 0
 156 186.605 156 186.605 156 174.5 c 2
 156 152.893 l 1
 155.878 151.791 l 2
 155.308 146.664 155.308 146.664 154.989 145.226 c 0
 154.969 144.785 154.969 144.785 154.97 144.782 c 0
 162.122 52.4736 162.122 52.4736 240.266 -8.20312 c 2
135 144 m 0,41,-1
EndSplineSet
EndChar

StartChar: bar
Encoding: 124 124 95
Width: 207
GlyphClass: 2
Flags: HW
LayerCount: 2
Fore
SplineSet
171 237.938 m 1,0,-1
 168.833 -20 l 1
 36 -20 l 1
 36 717 l 1
 169.956 717 l 1
 171 237.938 l 1,0,-1
EndSplineSet
EndChar

StartChar: braceright
Encoding: 125 125 96
Width: 268
GlyphClass: 2
Flags: HW
LayerCount: 2
Fore
SplineSet
44 152.932 m 2
 43 162.587 43 162.587 43 174.5 c 0
 43 186.605 43 186.605 44.0371 203.71 c 0
 45.0781 220.887 45.0781 220.887 47.1641 237.06 c 0
 49.3887 254.295 49.3887 254.295 54.9102 271.966 c 0
 60.7363 290.607 60.7363 290.607 69.748 304.426 c 0
 75.7803 313.676 75.7803 313.676 84.1719 320.952 c 1
 76.6777 328.439 76.6777 328.439 70.8232 338.255 c 0
 51.4062 370.807 51.4062 370.807 48.5557 409.012 c 0
 46.0127 443.089 46.0127 443.089 45.5029 473.667 c 0
 45.4121 479.124 45.4121 479.124 45.3682 486.604 c 0
 45.3242 494.084 45.3242 494.084 45.2607 498.076 c 0
 45.1963 502.069 45.1963 502.069 45.0127 503.761 c 0
 34.3564 601.715 34.3564 601.715 -41.5879 655.699 c 2
 -50 661.679 l 1
 -50 805.58 l 1
 -21.9834 793.323 l 2
 62.9434 756.168 62.9434 756.168 117.124 682.332 c 0
 171.85 607.756 171.85 607.756 178.975 502.705 c 0
 179.601 493.479 179.601 493.479 179.994 472.345 c 0
 180.707 433.995 180.707 433.995 182.92 409.284 c 0
 185.519 380.271 185.519 380.271 199.73 356.154 c 0
 210.429 338 210.429 338 229 338 c 1
 229 298 l 1
 218.736 298 218.736 298 211.6 293.54 c 0
 203.16 288.265 203.16 288.265 198.024 280.733 c 0
 191.982 271.872 191.982 271.872 187.349 258.812 c 0
 182.548 245.283 182.548 245.283 180.824 232.356 c 0
 178.917 218.052 178.917 218.052 177.961 202.752 c 0
 177.333 192.709 177.333 192.709 177.333 184.667 c 0
 177.333 180.769 177.333 180.769 177.481 177.369 c 0
 177.975 166.022 177.975 166.022 178.466 157.675 c 0
 179.07 147.386 179.07 147.386 178.961 146.112 c 0
 169.723 39.29 169.723 39.29 115.874 -37.4844 c 0
 62.4062 -113.716 62.4062 -113.716 -20.2402 -153.979 c 2
 -49 -167.991 l 1
 -49 -14.208 l 1
 -41.2656 -8.20312 l 2
 36.7852 52.4014 36.7852 52.4014 44.0303 144.782 c 2
 44 152.932 l 2
64 144 m 0,42,-1
EndSplineSet
EndChar

StartChar: asciitilde
Encoding: 126 126 97
Width: 496
GlyphClass: 2
Flags: HW
LayerCount: 2
Fore
SplineSet
389 600.816 m 1,0,1
 395.667 583.142 395.667 583.142 395.667 566.333 c 0,2,3
 395.667 556.652 395.667 556.652 393.456 547.367 c 0,4,5
 386.583 518.5 386.583 518.5 361.768 502.646 c 0,6,7
 340.562 489.099 340.562 489.099 316.33 484.37 c 0,8,9
 308.125 482.77 308.125 482.77 299.932 482.77 c 0,10,11
 281.554 482.77 281.554 482.77 263.793 490.762 c 0,12,13
 237.099 502.773 237.099 502.773 223.942 530.401 c 2,14,-1
 215.508 548.114 l 1,15,-1
 290.944 585.833 l 1,16,-1
 299.889 567.944 l 2,17,18
 301.995 563.73 301.995 563.73 305.101 563.39 c 1,19,20
 305.058 563.39 305.058 563.39 305.101 563.39 c 129,-1,21
 305.115 563.389 305.115 563.389 305.111 563.389 c 1,22,-1
 305.111 563.389 l 1,23,24
 306.179 563.311 306.179 563.311 306.422 563.312 c 0,25,26
 309.24 563.312 309.24 563.312 310.814 565.516 c 1,27,-1
 311.062 565.42 l 1,28,29
 310.984 565.991 310.984 565.991 310.679 566.785 c 1,30,31
 311.101 565.971 311.101 565.971 311.295 565.613 c 128,-1,32
 311.49 565.255 311.49 565.255 310.562 567.154 c 1,33,-1
 292.411 585.304 l 1,34,-1
 389 628.999 l 1,35,-1
 389 600.816 l 1,0,1
135 497.184 m 1,36,37
 128.333 514.858 128.333 514.858 128.333 531.667 c 0,38,39
 128.333 541.348 128.333 541.348 130.544 550.633 c 0,40,41
 137.417 579.5 137.417 579.5 162.232 595.354 c 0,42,43
 183.437 608.901 183.437 608.901 207.67 613.63 c 0,44,45
 215.875 615.23 215.875 615.23 224.068 615.23 c 0,46,47
 242.446 615.23 242.446 615.23 260.207 607.238 c 0,48,49
 286.901 595.227 286.901 595.227 300.058 567.599 c 2,50,-1
 308.492 549.886 l 1,51,-1
 233.056 512.167 l 1,52,-1
 224.111 530.056 l 2,53,54
 222.002 534.275 222.002 534.275 218.886 534.609 c 0,55,56
 217.812 534.689 217.812 534.689 217.578 534.688 c 0,57,58
 215.074 534.688 215.074 534.688 213.186 532.484 c 1,59,60
 212.855 531.802 212.855 531.802 213.071 531.551 c 128,-1,61
 213.286 531.301 213.286 531.301 213.319 531.226 c 129,-1,62
 213.3 531.271 213.3 531.271 213.309 531.273 c 1,63,-1
 213.514 530.771 l 1,64,-1
 231.589 512.696 l 1,65,-1
 135 469.001 l 1,66,-1
 135 497.184 l 1,36,37
218.886 534.609 m 129,-1,67
 218.909 534.609 218.909 534.609 218.886 534.609 c 129,-1,67
EndSplineSet
EndChar

StartChar: exclamdown
Encoding: 161 161 98
Width: 238
GlyphClass: 2
Flags: HW
LayerCount: 2
Fore
SplineSet
54.2705 -19 m 1
 47.7256 462 l 1
 178.774 462 l 1
 184.229 -19 l 1
 54.2705 -19 l 1
58.1978 692.491 m 128,-1,13
 82.3955 714 82.3955 714 112.087 714 c 128,-1,12
 141.779 714 141.779 714 165.89 691.899 c 128,-1,11
 190 669.798 190 669.798 190 632 c 0,9,10
 190 595.633 190 595.633 165.911 575.559 c 128,-1,8
 141.821 555.484 141.821 555.484 113.415 555.484 c 0,0,0
 112.481 555.484 112.481 555.484 97.4312 555.826 c 128,-1,7
 82.3809 556.168 82.3809 556.168 58.1904 576.999 c 128,-1,6
 34 597.829 34 597.829 34 634 c 0,4,5
 34 670.981 34 670.981 58.1978 692.491 c 128,-1,13
EndSplineSet
EndChar

StartChar: yen
Encoding: 165 165 99
Width: 604
GlyphClass: 2
Flags: HW
LayerCount: 2
Fore
SplineSet
28.4492 220 m 1
 569.46 220 l 1
 566.551 92 l 1
 25.54 92 l 1
 28.4492 220 l 1
24.54 400 m 1
 565.551 400 l 1
 568.46 272 l 1
 27.4492 272 l 1
 24.54 400 l 1
-21.2559 712 m 1
 132.726 712 l 1
 303.814 454.427 l 1
 471.143 712 l 1
 624.966 712 l 1
 374 328.043 l 1
 374 -16.4424 l 1
 227.559 -20.5869 l 1
 234.902 325.627 l 1
 -21.2559 712 l 1
EndSplineSet
EndChar

StartChar: dieresis
Encoding: 168 168 100
Width: 713
GlyphClass: 2
Flags: HW
LayerCount: 2
Fore
SplineSet
164.198 862.491 m 128,-1,1
 188.396 884 188.396 884 217.818 884 c 128,-1,2
 247.241 884 247.241 884 271.621 863.684 c 128,-1,3
 296 843.367 296 843.367 296 807 c 0,4,5
 296 769.202 296 769.202 271.89 747.101 c 128,-1,6
 247.779 725 247.779 725 218.088 725 c 128,-1,7
 188.396 725 188.396 725 164.198 746.509 c 128,-1,8
 140 768.019 140 768.019 140 805 c 0,9,0
 140 840.981 140 840.981 164.198 862.491 c 128,-1,1
412.198 857.491 m 128,-1,11
 436.396 879 436.396 879 465.818 879 c 128,-1,12
 495.241 879 495.241 879 519.621 858.684 c 128,-1,13
 544 838.367 544 838.367 544 802 c 0,14,15
 544 764.202 544 764.202 519.89 742.101 c 128,-1,16
 495.779 720 495.779 720 466.087 720 c 128,-1,17
 436.396 720 436.396 720 412.198 741.509 c 128,-1,18
 388 763.019 388 763.019 388 800 c 0,19,10
 388 835.981 388 835.981 412.198 857.491 c 128,-1,11
EndSplineSet
EndChar

StartChar: guillemotleft
Encoding: 171 171 101
Width: 605
GlyphClass: 2
Flags: HW
LayerCount: 2
Fore
SplineSet
464 465.934 m 1
 464 330.409 l 1
 400.305 287.129 l 1,0,0
 463.891 239.031 l 1
 465.44 97.9873 l 1
 206.526 289.635 l 1
 464 465.934 l 1
257 467.676 m 1
 257 333.521 l 1
 193.298 289.42 l 1,0,0
 256.891 242.133 l 1
 258.437 99.9492 l 1
 -1.58887 292.748 l 1
 257 467.676 l 1
EndSplineSet
EndChar

StartChar: degree
Encoding: 176 176 102
Width: 560
GlyphClass: 2
Flags: HW
LayerCount: 2
Fore
SplineSet
280.591 807.628 m 0,0,1
 280.407 807.628 280.407 807.628 280.25 807.605 c 0,2,3
 279.633 807.517 279.633 807.517 278.077 806.725 c 0,4,5
 276 805.666 276 805.666 276 802 c 0,6,7
 276 797.897 276 797.897 277.483 797.11 c 0,8,9
 277.517 797.095 277.517 797.095 277.683 797.013 c 0,10,11
 278.347 796.683 278.347 796.683 278.502 796.621 c 0,12,13
 279.415 796.252 279.415 796.252 280.111 796.252 c 0,14,15
 280.497 796.271 280.497 796.271 280.578 796.281 c 0,16,17
 281.615 796.418 281.615 796.418 283.272 797.244 c 128,-1,18
 285 798.105 285 798.105 285 803 c 0,19,20
 285 805.857 285 805.857 283.273 806.756 c 0,21,22
 283.048 806.916 283.048 806.916 282.2 807.248 c 0,23,24
 281.556 807.501 281.556 807.501 280.591 807.628 c 0,0,1
280.591 807.628 m 1,25,-1
 280.591 807.628 l 1,25,-1
280.111 796.252 m 1,26,-1
 280.111 796.252 l 1,26,-1
277.483 797.11 m 1,27,28
 277.5 797.102 277.5 797.102 277.508 797.096 c 1,29,-1
 277.483 797.11 l 1,27,28
277.508 797.096 m 1,30,-1
 277.508 797.096 l 1,30,-1
217.379 864.426 m 128,-1,32
 244.759 886.205 244.759 886.205 274.709 886.205 c 0,33,34
 278.102 886.205 278.102 886.205 295.951 884.832 c 128,-1,35
 313.801 883.459 313.801 883.459 341.9 860.468 c 128,-1,36
 370 837.478 370 837.478 370 799 c 0,37,38
 370 758.687 370 758.687 341.811 734.982 c 128,-1,39
 313.622 711.278 313.622 711.278 296.353 710.614 c 128,-1,40
 279.084 709.95 279.084 709.95 277.41 709.95 c 0,41,42
 245.459 709.95 245.459 709.95 217.729 733.898 c 128,-1,43
 190 757.847 190 757.847 190 801 c 0,44,31
 190 842.646 190 842.646 217.379 864.426 c 128,-1,32
EndSplineSet
EndChar

StartChar: plusminus
Encoding: 177 177 103
Width: 495
GlyphClass: 2
Flags: HW
LayerCount: 2
Fore
SplineSet
462 107 m 1
 34 107 l 1
 34 236.948 l 1
 462 238.052 l 1
 462 107 l 1
313.129 453.147 m 1,0,0
 314.13 298 l 1
 183 298 l 1
 183 452.857 l 1,0,0
 42 451.857 l 1
 42 582.141 l 1
 184.582 581.144 l 1,0,0
 181.585 727 l 1
 312 727 l 1
 312 583.146 l 1,0,0
 449 584.146 l 1
 449 454.146 l 1
 313.129 453.147 l 1,0,0
EndSplineSet
EndChar

StartChar: uni00B2
Encoding: 178 178 104
Width: 402
GlyphClass: 2
Flags: HW
LayerCount: 2
Fore
SplineSet
286.684 734.539 m 2,1,2
 304.807 762.421 304.807 762.421 304.807 783.766 c 0,0,0
 304.807 787.397 304.807 787.397 303.097 797.998 c 128,-1,3
 301.387 808.598 301.387 808.598 280.419 813.531 c 0,4,5
 277.447 814.23 277.447 814.23 274.112 814.23 c 0,0,0
 265.401 814.23 265.401 814.23 253.251 809.145 c 128,-1,6
 241.102 804.059 241.102 804.059 236.974 791.676 c 2,7,-1
 228.846 767.291 l 1
 153.404 815.651 l 1
 160.919 831.548 l 2,8,9
 191.42 896.07 191.42 896.07 270.142 896.07 c 0,0,0
 271.743 896.07 271.743 896.07 275.485 895.994 c 0,10,11
 333.811 894.806 333.811 894.806 362.151 864.765 c 128,-1,12
 390.492 834.724 390.492 834.724 390.492 793.3 c 0,0,0
 390.492 784.689 390.492 784.689 386.855 755.595 c 128,-1,13
 383.218 726.5 383.218 726.5 345.146 673.199 c 2,14,-1
 283.15 590.294 l 1,0,0
 400 591.146 l 1
 400 505 l 1
 110.433 505 l 1
 286.684 734.539 l 2,1,2
EndSplineSet
EndChar

StartChar: uni00B3
Encoding: 179 179 105
Width: 382
GlyphClass: 2
Flags: HW
LayerCount: 2
Fore
SplineSet
284.493 767.09 m 128,-1,2
 288.5 776.38 288.5 776.38 288.5 784.125 c 0,0,0
 288.5 791.278 288.5 791.278 285.111 798.056 c 0,3,4
 279.334 809.609 279.334 809.609 261.771 813.453 c 0,5,6
 255.714 814.777 255.714 814.777 248.716 814.777 c 0,0,0
 240.015 814.777 240.015 814.777 229.109 812.181 c 128,-1,7
 218.204 809.585 218.204 809.585 212.483 799.287 c 2,8,-1
 202.208 780.792 l 1
 128.34 827.446 l 1
 140.776 844.696 l 2,9,10
 176.385 894.089 176.385 894.089 252.768 894.089 c 0,0,0
 253.814 894.089 253.814 894.089 256.033 894.044 c 0
 258.253 893.998 258.253 893.998 259.281 893.996 c 0,11,12
 297.033 893.912 297.033 893.912 326.03 875.185 c 128,-1,13
 355.027 856.457 355.027 856.457 364.876 833.132 c 128,-1,14
 374.725 809.808 374.725 809.808 374.725 788.656 c 0,0,0
 374.725 777.884 374.725 777.884 371.463 759.62 c 128,-1,15
 368.201 741.355 368.201 741.355 352.378 719.457 c 1,0,0
 377.979 688.137 377.979 688.137 383.047 663.469 c 128,-1,18
 388.116 638.801 388.116 638.801 388.116 625.069 c 0,0,0
 388.116 598.511 388.116 598.511 374.277 570.832 c 128,-1,19
 360.438 543.153 360.438 543.153 326.263 521.143 c 128,-1,20
 292.088 499.132 292.088 499.132 249.37 499.007 c 0,21,22
 248.205 499.004 248.205 499.004 245.62 498.936 c 0
 243.035 498.867 243.035 498.867 241.805 498.867 c 0,0,0
 186.509 498.867 186.509 498.867 132.657 527.316 c 2,23,-1
 110.579 538.98 l 1
 165.476 603.342 l 1
 179.123 597.276 l 2,24,25
 195.68 589.918 195.68 589.918 208.65 586.459 c 128,-1,26
 221.621 583 221.621 583 225.311 583 c 130,-1,27
 251 583 l 2,28,29
 276.459 583 276.459 583 287.317 598.847 c 128,-1,30
 298.176 614.694 298.176 614.694 298.176 628.878 c 0,0,0
 298.176 635.549 298.176 635.549 294.485 649.01 c 128,-1,31
 290.794 662.471 290.794 662.471 270.395 670.073 c 1,0,0
 208.509 671.419 l 1
 206.479 748.518 l 1
 266.572 749.948 l 1,0,0
 269.227 750.579 269.227 750.579 270.541 751.133 c 0
 272.712 752.047 272.712 752.047 274.613 753.454 c 0
 280.485 757.8 280.485 757.8 284.493 767.09 c 128,-1,2
EndSplineSet
EndChar

StartChar: acute
Encoding: 180 180 106
Width: 1000
GlyphClass: 2
Flags: HW
LayerCount: 2
Fore
SplineSet
424.851 1014.89 m 1,0,-1
 514.608 909.211 l 1,1,-1
 332.914 764.572 l 1,2,-1
 255.634 837.216 l 1,3,-1
 424.851 1014.89 l 1,0,-1
EndSplineSet
EndChar

StartChar: uni00B9
Encoding: 185 185 107
Width: 284
GlyphClass: 2
Flags: HW
LayerCount: 2
Fore
SplineSet
243 589 m 1
 244 589 l 1
 244 510 l 1
 155 510 l 1
 155 568.954 l 1
 154.16 751.228 l 1
 100.489 799.704 l 1
 182.812 877.079 l 1
 241.139 940.107 l 1
 242.998 832.172 l 1
 243 589 l 1
EndSplineSet
EndChar

StartChar: guillemotright
Encoding: 187 187 108
Width: 605
GlyphClass: 2
Flags: HW
LayerCount: 2
Fore
SplineSet
14 465.934 m 1
 271.474 289.635 l 1
 12.5596 97.9873 l 1
 14.1094 239.031 l 1
 77.6953 287.129 l 1,0,0
 14 330.409 l 1
 14 465.934 l 1
221 467.676 m 1
 479.589 292.748 l 1
 219.563 99.9492 l 1
 221.109 242.133 l 1
 284.702 289.42 l 1,0,0
 221 333.521 l 1
 221 467.676 l 1
EndSplineSet
EndChar

StartChar: questiondown
Encoding: 191 191 109
Width: 548
GlyphClass: 2
Flags: HW
LayerCount: 2
Fore
SplineSet
344.744 104.72 m 128,-1,2
 362.622 112.439 362.622 112.439 372.792 124.82 c 128,-1,3
 382.961 137.2 382.961 137.2 398.409 153.679 c 2,4,-1
 416.404 172.873 l 1
 479.773 68.7666 l 1
 469.948 57.7129 l 2,5,6
 435.034 18.4346 435.034 18.4346 391.109 -0.782715 c 128,-1,7
 347.184 -20 347.184 -20 287 -20 c 0,8,9
 190 -20 190 -20 131.5 35.7144 c 128,-1,10
 73 91.4287 73 91.4287 73 182 c 0,11,12
 73 227.78 73 227.78 92.7734 266.778 c 128,-1,13
 112.547 305.776 112.547 305.776 155.61 349.891 c 2,14,-1
 197.426 393.695 l 2,15,16
 231.284 430.3 231.284 430.3 236.642 447.197 c 128,-1,17
 242 464.095 242 464.095 242 513 c 2,18,-1
 242 514.173 l 1
 246.109 549.104 l 1
 381.648 556.091 l 1
 379.995 501.697 l 2,21,22
 379.995 439.397 379.995 439.397 362.291 402.882 c 128,-1,23
 344.587 366.367 344.587 366.367 304.468 325.192 c 2,24,-1
 261.779 279.527 l 2,25,26
 253.146 269.815 253.146 269.815 244.44 262.077 c 128,-1,27
 235.734 254.339 235.734 254.339 228.548 244.906 c 128,-1,28
 221.361 235.474 221.361 235.474 215.727 226.805 c 128,-1,29
 210.092 218.136 210.092 218.136 207.446 210.528 c 128,-1,30
 204.8 202.921 204.8 202.921 204.8 196.78 c 2,0,0
 204.962 193.091 l 2,31,32
 206.248 145.346 206.248 145.346 228.682 121.173 c 0
 251.115 97 251.115 97 300 97 c 0,0,1
 326.866 97 326.866 97 344.744 104.72 c 128,-1,2
365.81 632.999 m 128,-1,35
 341.619 612.168 341.619 612.168 326.569 611.826 c 128,-1,36
 311.519 611.484 311.519 611.484 310.585 611.484 c 0,0,0
 282.179 611.484 282.179 611.484 258.089 631.559 c 128,-1,37
 234 651.633 234 651.633 234 688 c 0,38,39
 234 725.798 234 725.798 258.11 747.899 c 128,-1,40
 282.221 770 282.221 770 311.913 770 c 128,-1,41
 341.604 770 341.604 770 365.802 748.491 c 128,-1,42
 390 726.981 390 726.981 390 690 c 0,33,34
 390 653.829 390 653.829 365.81 632.999 c 128,-1,35
EndSplineSet
EndChar

StartChar: Odieresis
Encoding: 214 214 127
Width: 812
GlyphClass: 2
Flags: HW
LayerCount: 2
Fore
SplineSet
398 -3 m 0
EndSplineSet
Refer: 50 79 N 1 0 0 1 0 0 2
Refer: 100 168 S 1 0 0 1 26 0 2
EndChar

StartChar: multiply
Encoding: 215 215 128
Width: 495
GlyphClass: 2
Flags: HW
LayerCount: 2
Fore
SplineSet
337.275 360.138 m 1,0,0
 447.349 251.064 l 1
 355.064 158.78 l 1
 245.208 267.638 l 1,0,0
 147.144 167.572 l 1
 54.7158 260 l 1
 155.366 360.65 l 1,0,0
 50.3662 460.65 l 1
 143 553.284 l 1
 244.854 451.431 l 1,0,0
 340.854 549.431 l 1
 433.211 457.073 l 1
 337.275 360.138 l 1,0,0
EndSplineSet
EndChar

StartChar: germandbls
Encoding: 223 223 130
Width: 517
GlyphClass: 2
Flags: HW
LayerCount: 2
Fore
SplineSet
261.995 -19.9502 m 1
 73 -20 l 1
 73 -19.4121 l 1
 24 -20.4121 l 1
 24 708 l 1
 250.056 708 l 1
 252.979 706.051 l 1
 299.023 705.823 299.023 705.823 336.744 687.487 c 0
 377.206 667.818 377.206 667.818 400.638 635.814 c 0
 423.514 604.569 423.514 604.569 432.95 565.157 c 0
 438.661 541.308 438.661 541.308 438.661 518.314 c 0
 438.661 503.309 438.661 503.309 436.228 488.712 c 0
 429.936 450.959 429.936 450.959 405.566 418.089 c 0
 395.326 404.276 395.326 404.276 382.234 393.102 c 1
 405.906 383.956 405.906 383.956 425.718 366.51 c 0
 463.239 333.469 463.239 333.469 479.451 285.391 c 0
 492.181 247.643 492.181 247.643 492.181 205.504 c 0
 492.181 195.419 492.181 195.419 491.45 185.09 c 0
 487.662 131.519 487.662 131.519 464.303 85.8867 c 0
 440.148 38.7012 440.148 38.7012 389.124 8.75195 c 0
 341.608 -19.1377 341.608 -19.1377 279.476 -19.1377 c 0
 275.648 -19.1377 275.648 -19.1377 271.7 -19.0293 c 2
 261.995 -19.9502 l 1
208 596 m 1
 150.968 596 l 1
 150.688 424 l 1
 169 424 l 2
 182.474 424 182.474 424 210.449 425.473 c 0
 213.519 425.634 213.519 425.634 225.879 426.098 c 0
 238.24 426.562 238.24 426.562 241.339 426.967 c 0
 269.451 430.637 269.451 430.637 288.014 448.797 c 0
 306.104 466.493 306.104 466.493 309.182 489.188 c 0
 310.333 497.683 310.333 497.683 310.333 506.111 c 0
 310.333 522.959 310.333 522.959 305.72 539.682 c 0
 299.5 562.229 299.5 562.229 278.806 578.147 c 0
 257.96 594.183 257.96 594.183 227.46 595.008 c 2
 208 596 l 1
150.51 314 m 1
 150.187 115 l 1
 284 115 l 2
 314.954 115 314.954 115 334.149 133.428 c 0
 353.948 152.435 353.948 152.435 357.129 180.271 c 0
 358.28 190.339 358.28 190.339 358.28 200.349 c 0
 358.28 221.612 358.28 221.612 353.081 242.716 c 0
 346.015 271.396 346.015 271.396 323.412 292.325 c 0
 301.936 312.211 301.936 312.211 272.46 313.007 c 2
 253 313.533 l 1
 169 314 l 1
 150.51 314 l 1
EndSplineSet
EndChar

StartChar: dotlessi
Encoding: 305 305 165
Width: 207
GlyphClass: 2
Flags: HW
LayerCount: 2
Fore
SplineSet
38.9082 453 m 1,0,-1
 171 453 l 1,1,-1
 171 -22 l 1,2,-1
 41.0918 -22 l 1,3,-1
 38.9082 453 l 1,0,-1
EndSplineSet
EndChar

StartChar: jcircumflex
Encoding: 309 309 167
Width: 207
GlyphClass: 2
Flags: HW
LayerCount: 2
Fore
SplineSet
39 450 m 1
 171.038 450 l 1
 169.963 -122 l 1
 39 -122 l 1
 39 450 l 1
EndSplineSet
Refer: 65 94 S 1 0 0 1 -195 -35 2
EndChar

StartChar: uni030A
Encoding: 778 778 174
Width: 154
GlyphClass: 2
Flags: HW
LayerCount: 2
Fore
SplineSet
76.1387 796.748 m 0
 75.7822 796.731 75.7822 796.731 75.7139 796.723 c 0
 75.2275 796.657 75.2275 796.657 73.5254 795.914 c 0
 72 795.248 72 795.248 72 791 c 0
 72 786.9 72 786.9 73.499 786.102 c 0
 73.5166 786.093 73.5166 786.093 73.5254 786.086 c 1
 73.5088 786.102 73.5088 786.102 73.499 786.102 c 1
 74.3721 785.681 74.3721 785.681 74.3916 785.673 c 0
 74.8789 785.477 74.8789 785.477 75.6582 785.372 c 0
 77.0293 785.539 77.0293 785.539 78.7275 786.45 c 0
 81 787.668 81 787.668 81 792 c 0
 81 794.857 81 794.857 79.2734 795.756 c 0
 78.9658 795.956 78.9658 795.956 78.084 796.301 c 0
 77.3535 796.588 77.3535 796.588 76.1387 796.748 c 0
76.1387 796.748 m 1
 76.1387 796.748 l 1
75.6582 785.372 m 1
 75.6582 785.372 l 1
13.4287 854.016 m 128,-1,10
 40.8574 875.211 40.8574 875.211 70.5703 875.211 c 0,0,0
 74.0303 875.211 74.0303 875.211 91.9155 873.835 c 128,-1,11
 109.801 872.459 109.801 872.459 137.9 849.468 c 128,-1,12
 166 826.478 166 826.478 166 788 c 0,13,14
 166 747.687 166 747.687 137.729 723.913 c 128,-1,15
 109.458 700.14 109.458 700.14 92.4805 699.813 c 128,-1,16
 75.5029 699.486 75.5029 699.486 74.6348 699.486 c 0,0,0
 42.1299 699.486 42.1299 699.486 14.0649 723.086 c 128,-1,17
 -14 746.687 -14 746.687 -14 790 c 0,8,9
 -14 832.82 -14 832.82 13.4287 854.016 c 128,-1,10
EndSplineSet
EndChar

StartChar: Delta
Encoding: 916 916 175
Width: 674
GlyphClass: 2
Flags: HW
LayerCount: 2
Fore
SplineSet
388.275 647.125 m 1,1,-1
 683.751 -19 l 1
 558.116 -18.999 l 1,3,-1
 472.116 -19.999 l 1,4,-1
 196.877 -19.999 l 1,5,-1
 115.877 -18.999 l 1,6,-1
 -9.21582 -19 l 1
 280.51 663.621 l 1,8,-1
 328.005 782.365 l 1
 388.275 647.125 l 1,1,-1
494.029 102 m 1,0,0
 331.047 463.068 l 1,0,0
 185.617 102 l 1,0,0
 494.029 102 l 1,0,0
EndSplineSet
EndChar

StartChar: beta
Encoding: 946 946 176
Width: 517
GlyphClass: 2
Flags: HW
LayerCount: 2
Fore
SplineSet
149.973 -140 m 1
 73 -140 l 1
 73 -139.412 l 1
 24 -140.412 l 1
 24 708 l 1
 250.056 708 l 1
 252.979 706.051 l 1
 299.023 705.823 299.023 705.823 336.744 687.487 c 0
 377.206 667.818 377.206 667.818 400.638 635.814 c 0
 423.514 604.569 423.514 604.569 432.95 565.157 c 0
 438.661 541.308 438.661 541.308 438.661 518.314 c 0
 438.661 503.309 438.661 503.309 436.228 488.712 c 0
 429.936 450.959 429.936 450.959 405.566 418.089 c 0
 395.326 404.276 395.326 404.276 382.234 393.102 c 1
 405.906 383.956 405.906 383.956 425.718 366.51 c 0
 463.239 333.469 463.239 333.469 479.451 285.391 c 0
 492.181 247.643 492.181 247.643 492.181 205.504 c 0
 492.181 195.419 492.181 195.419 491.45 185.09 c 0
 487.662 131.519 487.662 131.519 464.303 85.8867 c 0
 440.148 38.7012 440.148 38.7012 389.124 8.75195 c 0
 341.608 -19.1377 341.608 -19.1377 279.476 -19.1377 c 0
 275.648 -19.1377 275.648 -19.1377 271.7 -19.0293 c 2
 261.995 -19.9502 l 1
 150.136 -20 l 1
 149.973 -140 l 1
208 596 m 1
 150.973 596 l 1
 150.739 424 l 1
 169 424 l 2
 182.474 424 182.474 424 210.449 425.473 c 0
 213.519 425.634 213.519 425.634 225.879 426.098 c 0
 238.24 426.562 238.24 426.562 241.339 426.967 c 0
 269.451 430.637 269.451 430.637 288.014 448.797 c 0
 306.104 466.493 306.104 466.493 309.182 489.188 c 0
 310.333 497.683 310.333 497.683 310.333 506.111 c 0
 310.333 522.959 310.333 522.959 305.72 539.682 c 0
 299.5 562.229 299.5 562.229 278.806 578.147 c 0
 257.96 594.183 257.96 594.183 227.46 595.008 c 2
 208 596 l 1
150.59 314 m 1
 150.319 115 l 1
 284 115 l 2
 314.954 115 314.954 115 334.149 133.428 c 0
 353.948 152.435 353.948 152.435 357.129 180.271 c 0
 358.28 190.339 358.28 190.339 358.28 200.349 c 0
 358.28 221.612 358.28 221.612 353.081 242.716 c 0
 346.015 271.396 346.015 271.396 323.412 292.325 c 0
 301.936 312.211 301.936 312.211 272.46 313.007 c 2
 253 313.533 l 1
 169 314 l 1
 150.59 314 l 1
EndSplineSet
EndChar

StartChar: quoteleft
Encoding: 8216 8216 177
Width: 187
GlyphClass: 2
Flags: HW
LayerCount: 2
Fore
SplineSet
147.581 612.813 m 0
 146.76 594.893 146.76 594.893 138.996 582.134 c 0
 136.247 577.616 136.247 577.616 132.648 573.441 c 0
 116.215 554.378 116.215 554.378 94.415 548.247 c 0
 87.3955 546.272 87.3955 546.272 80.3467 546.272 c 0
 60.8379 546.272 60.8379 546.272 45.5059 559.383 c 0
 39.4932 564.523 39.4932 564.523 35.8545 569.261 c 0
 22.7988 586.258 22.7988 586.258 20.0752 614.306 c 0
 19.6729 618.45 19.6729 618.45 19.6729 625.734 c 0
 19.6729 671.034 19.6729 671.034 44.6904 709.838 c 0
 73.002 753.749 73.002 753.749 106.676 764.974 c 2
 163.289 783.845 l 1
 129.48 734.67 l 2
 121.889 723.626 121.889 723.626 120.992 693.444 c 2
 120.923 688.598 l 2
 121.279 670.476 121.279 670.476 124.426 662.581 c 0
 125.164 660.729 125.164 660.729 125.994 659.479 c 0
 145.527 644.043 145.527 644.043 146.967 621.686 c 0
 146.987 621.367 146.987 621.367 147.324 617.969 c 0
 147.661 614.57 147.661 614.57 147.581 612.813 c 0
EndSplineSet
EndChar

StartChar: quoteright
Encoding: 8217 8217 178
Width: 187
GlyphClass: 2
Flags: HW
LayerCount: 2
Fore
SplineSet
34.9336 691.885 m 0,0,0
 34.9336 711.509 34.9336 711.509 48.1421 730.121 c 128,-1,2
 61.3506 748.733 61.3506 748.733 76.623 754.153 c 128,-1,3
 91.8955 759.572 91.8955 759.572 99.8887 759.333 c 0,0,0
 112.799 758.948 112.799 758.948 123.781 753.523 c 0
 129.364 750.765 129.364 750.765 134.351 746.925 c 128,-1,4
 139.338 743.085 139.338 743.085 142.649 739.414 c 0
 144.176 737.722 144.176 737.722 145.596 735.895 c 0
 157.777 720.223 157.777 720.223 161.753 696.109 c 0,5,6
 163.31 686.667 163.31 686.667 163.31 673.99 c 0,0,0
 163.31 635.238 163.31 635.238 141.333 594.353 c 128,-1,7
 119.356 553.467 119.356 553.467 88.0547 539.693 c 2,8,9
 33.1729 515.546 l 1
 62.5684 567.806 l 2,8,9
 67.3633 576.33 67.3633 576.33 67.3633 598.239 c 0,0,0
 67.3633 604.807 67.3633 604.807 66.5483 617.27 c 128,-1,10
 65.7334 629.733 65.7334 629.733 62.001 638.41 c 0
 60.6465 641.558 60.6465 641.558 60.3555 641.753 c 0,11,12
 39.2109 655.98 39.2109 655.98 36.1738 679.141 c 0,0,0
 34.9336 688.601 34.9336 688.601 34.9336 691.885 c 0,0,0
EndSplineSet
EndChar

StartChar: quotedblleft
Encoding: 8220 8220 179
Width: 292
GlyphClass: 2
Flags: HW
LayerCount: 2
Fore
SplineSet
270.286 616.918 m 0,0,0
 270.286 594.842 270.286 594.842 254.818 575.507 c 128,-1,2
 239.351 556.173 239.351 556.173 224.086 552.472 c 128,-1,3
 208.822 548.771 208.822 548.771 203.344 549 c 0,0,0
 188.375 549.625 188.375 549.625 176.732 556.138 c 0
 170.8 559.457 170.8 559.457 165.911 563.8 c 128,-1,4
 161.022 568.143 161.022 568.143 157.941 572.096 c 0
 157.183 573.069 157.183 573.069 155.276 575.788 c 0
 144.495 591.923 144.495 591.923 142.066 616.49 c 0,5,6
 141.846 618.723 141.846 618.723 141.846 624.882 c 0,0,0
 141.846 671.71 141.846 671.71 168.374 713.713 c 128,-1,7
 194.902 755.716 194.902 755.716 228.676 766.974 c 2,8,9
 288.287 786.845 l 1
 251.128 736.173 l 2,8,9
 243.91 726.33 243.91 726.33 243.688 710.119 c 128,-1,10
 243.467 693.908 243.467 693.908 243.479 693.372 c 0,0,0
 243.927 673.147 243.927 673.147 246.911 665.086 c 0
 247.509 663.47 247.509 663.47 248.185 662.33 c 1,0,0
 268.313 646.358 268.313 646.358 269.917 623.77 c 0,0,1
 270.286 618.57 270.286 618.57 270.286 616.918 c 0,0,0
147.581 612.813 m 0
 146.76 594.893 146.76 594.893 138.996 582.134 c 0
 136.247 577.616 136.247 577.616 132.648 573.441 c 0
 116.215 554.378 116.215 554.378 94.415 548.247 c 0
 87.3955 546.272 87.3955 546.272 80.3467 546.272 c 0
 60.8379 546.272 60.8379 546.272 45.5059 559.383 c 0
 39.4932 564.523 39.4932 564.523 35.8545 569.261 c 0
 22.7988 586.258 22.7988 586.258 20.0752 614.306 c 0
 19.6729 618.45 19.6729 618.45 19.6729 625.734 c 0
 19.6729 671.034 19.6729 671.034 44.6904 709.838 c 0
 73.002 753.749 73.002 753.749 106.676 764.974 c 2
 163.289 783.845 l 1
 129.48 734.67 l 2
 121.889 723.626 121.889 723.626 120.992 693.444 c 2
 120.923 688.598 l 2
 121.279 670.476 121.279 670.476 124.426 662.581 c 0
 125.164 660.729 125.164 660.729 125.994 659.479 c 0
 145.527 644.043 145.527 644.043 146.967 621.686 c 0
 146.987 621.367 146.987 621.367 147.324 617.969 c 0
 147.661 614.57 147.661 614.57 147.581 612.813 c 0
EndSplineSet
EndChar

StartChar: quotedblright
Encoding: 8221 8221 180
Width: 358
GlyphClass: 2
Flags: HW
LayerCount: 2
Fore
SplineSet
169.934 694.458 m 0,0,0
 170.421 703.664 170.421 703.664 171.637 708.651 c 0
 172.201 710.964 172.201 710.964 172.95 713.243 c 0
 175.861 722.102 175.861 722.102 186.12 737.022 c 128,-1,2
 196.378 751.943 196.378 751.943 211.706 756.888 c 128,-1,3
 227.034 761.832 227.034 761.832 234.552 761.613 c 0,0,0
 247.404 761.238 247.404 761.238 258.356 756.073 c 0
 264.029 753.397 264.029 753.397 269.069 749.67 c 128,-1,4
 274.109 745.943 274.109 745.943 277.474 742.311 c 0
 292.268 726.333 292.268 726.333 296.757 699.08 c 0,5,6
 298.309 689.654 298.309 689.654 298.309 676.625 c 0,0,0
 298.309 637.291 298.309 637.291 276.394 597.028 c 128,-1,7
 254.479 556.765 254.479 556.765 223.654 541.97 c 2,8,9
 166.472 514.521 l 1
 197.568 569.805 l 2,8,9
 202.363 578.33 202.363 578.33 202.363 600.239 c 0,0,0
 202.363 606.755 202.363 606.755 201.528 619.661 c 128,-1,10
 200.692 632.567 200.692 632.567 196.625 641.662 c 0
 195.547 644.072 195.547 644.072 194.437 645.363 c 0,0,0
 174.249 659.507 174.249 659.507 171.186 682.028 c 0,0,0
 169.811 692.135 169.811 692.135 169.934 694.458 c 0,0,0
34.9336 691.885 m 0,0,0
 34.9336 711.509 34.9336 711.509 48.1421 730.121 c 128,-1,15
 61.3506 748.733 61.3506 748.733 76.623 754.153 c 128,-1,16
 91.8955 759.572 91.8955 759.572 99.8887 759.333 c 0,0,0
 112.799 758.948 112.799 758.948 123.781 753.523 c 0
 129.364 750.765 129.364 750.765 134.351 746.925 c 128,-1,17
 139.338 743.085 139.338 743.085 142.649 739.414 c 0
 144.176 737.722 144.176 737.722 145.596 735.895 c 0
 157.777 720.223 157.777 720.223 161.753 696.109 c 0,18,19
 163.31 686.667 163.31 686.667 163.31 673.99 c 0,0,0
 163.31 635.238 163.31 635.238 141.333 594.353 c 128,-1,20
 119.356 553.467 119.356 553.467 88.0547 539.693 c 2,21,22
 33.1729 515.546 l 1
 62.5684 567.806 l 2,21,22
 67.3633 576.33 67.3633 576.33 67.3633 598.239 c 0,0,0
 67.3633 604.807 67.3633 604.807 66.5483 617.27 c 128,-1,23
 65.7334 629.733 65.7334 629.733 62.001 638.41 c 0
 60.6465 641.558 60.6465 641.558 60.3555 641.753 c 0,24,25
 39.2109 655.98 39.2109 655.98 36.1738 679.141 c 0,0,0
 34.9336 688.601 34.9336 688.601 34.9336 691.885 c 0,0,0
EndSplineSet
EndChar

StartChar: Euro
Encoding: 8364 8364 182
Width: 715
Flags: HW
LayerCount: 2
Fore
SplineSet
597.613 313 m 1
 552.979 191 l 1
 -3.61328 191 l 1
 41.0205 313 l 1
 597.613 313 l 1
650.541 475 m 1
 602.541 355 l 1
 3.4707 355 l 1
 42.4707 475 l 1
 650.541 475 l 1
702.657 648.726 m 1
 655.182 506.3 l 1
 633.319 547.652 l 2,14,15
 625.597 562.259 625.597 562.259 585.508 578.456 c 0,16,17
 552.428 591.822 552.428 591.822 493.26 594.014 c 0,18,19
 488.817 594.178 488.817 594.178 484.393 594.178 c 0,0,0
 414.159 594.178 414.159 594.178 344.847 551.141 c 128,-1,20
 275.534 508.104 275.534 508.104 242.123 436.541 c 0,21,22
 217.053 382.843 217.053 382.843 217.053 330.611 c 0,0,0
 217.053 290.082 217.053 290.082 241.86 224.59 c 128,-1,23
 266.668 159.098 266.668 159.098 363.448 114.128 c 0,24,25
 411.266 91.9092 411.266 91.9092 436.473 91.459 c 129,-1,26
 461.681 91.0088 461.681 91.0088 464.26 90.9785 c 0
 466.84 90.9473 466.84 90.9473 467.877 90.9473 c 0,0,0
 517.082 90.9473 517.082 90.9473 562.262 107.376 c 128,-1,27
 607.442 123.806 607.442 123.806 651.112 156.084 c 2,28,-1
 683 179.652 l 1
 683 32.1523 l 1
 676.453 26.2012 l 2,29,30
 628.429 -17.458 628.429 -17.458 594.049 -24.6665 c 128,-1,31
 559.669 -31.875 559.669 -31.875 520.409 -34.2441 c 128,-1,32
 481.148 -36.6133 481.148 -36.6133 462.749 -36.6133 c 0,0,0
 423.165 -36.6133 423.165 -36.6133 377.373 -29.9448 c 128,-1,33
 331.581 -23.2764 331.581 -23.2764 295.821 -4.76953 c 0,34,35
 149.849 70.7764 149.849 70.7764 115.478 166.791 c 128,-1,36
 81.1074 262.805 81.1074 262.805 81.1074 321.162 c 0,0,0
 81.1074 404.22 81.1074 404.22 121.881 491.469 c 0,37,38
 173.556 602.041 173.556 602.041 271.664 661.209 c 128,-1,40
 369.772 720.378 369.772 720.378 477.745 720.378 c 0,0,0
 485.743 720.378 485.743 720.378 495.821 719.983 c 0,8,9
 556.712 717.595 556.712 717.595 629.971 688.052 c 0,0,0
 670.063 671.884 670.063 671.884 690.584 657.304 c 2,10,11
 702.657 648.726 l 1
EndSplineSet
EndChar

StartChar: brokenbar
Encoding: 166 166 187
Width: 207
Flags: HW
LayerCount: 2
Fore
SplineSet
43 335 m 1
 166.811 335 l 1
 170.191 -20 l 1
 43 -20 l 1
 43 335 l 1
44.0645 716 m 1
 168.064 716 l 1
 166.936 367 l 1
 42.9355 367 l 1
 44.0645 716 l 1
EndSplineSet
EndChar

